<?xml version="1.0" encoding="iso-8859-1"?>
<!-- Generator: Adobe Illustrator 22.1.0, SVG Export Plug-In . SVG Version: 6.00 Build 0)  -->
<svg xmlns="http://www.w3.org/2000/svg" xmlns:xlink="http://www.w3.org/1999/xlink" version="1.1" id="Layer_1_1_" x="0px" y="0px" viewBox="0 0 64 64" style="enable-background:new 0 0 64 64;" xml:space="preserve" width="512" height="512">
<g>
	<g>
		<g>
			<path style="fill:#F0BC5E;" d="M32,39c-3.859,0-7-3.141-7-7v-7h14v7C39,35.859,35.859,39,32,39z"/>
		</g>
	</g>
	<g>
		<g>
			<path style="fill:#F0BC5E;" d="M27,53h-4c-1.654,0-3-1.346-3-3v-7h10v7C30,51.654,28.654,53,27,53z"/>
		</g>
	</g>
	<g>
		<g>
			<path style="fill:#F0BC5E;" d="M41,53h-4c-1.654,0-3-1.346-3-3v-7h10v7C44,51.654,42.654,53,41,53z"/>
		</g>
	</g>
	<g>
		<rect x="20" y="45" width="10" height="2"/>
		<rect x="34" y="45" width="10" height="2"/>
		<rect x="25" y="27" width="8" height="2"/>
		<rect x="35" y="27" width="4" height="2"/>
		<path d="M54.748,50.334l-0.082-0.082C53.592,49.177,53,47.749,53,46.229v-0.377c0-1.031,0.28-2.042,0.811-2.926l1.377-2.296    C55.719,39.745,56,38.731,56,37.699C56,34.557,53.443,32,50.301,32h-2.86C43.938,28.354,42,23.586,42,18.515V16v-1V8    c0-3.86-3.14-7-7-7h-6c-3.86,0-7,3.14-7,7v7v1v2.515c0,5.072-1.938,9.839-5.441,13.485h-2.86C10.557,32,8,34.557,8,37.699    c0,1.033,0.281,2.046,0.812,2.932l1.377,2.296C10.72,43.81,11,44.822,11,45.853v0.377c0,1.52-0.592,2.948-1.666,4.022    l-0.082,0.082C7.8,51.786,7,53.717,7,55.771V63h2v-7.229c0-1.52,0.592-2.948,1.666-4.022l0.082-0.082    C12.2,50.214,13,48.283,13,46.229v-0.377c0-1.393-0.379-2.761-1.096-3.956l-1.377-2.296C10.182,39.027,10,38.369,10,37.699    C10,35.659,11.659,34,13.699,34H16v29h32V34h2.301C52.341,34,54,35.659,54,37.699c0,0.67-0.182,1.328-0.527,1.902l-1.377,2.296    C51.379,43.091,51,44.459,51,45.853v0.377c0,2.054,0.8,3.984,2.252,5.437l0.082,0.082C54.408,52.823,55,54.251,55,55.771V63h2    v-7.229C57,53.717,56.2,51.786,54.748,50.334z M40,8v7h-2V7c0-1.384-0.475-2.655-1.265-3.672C38.636,4.037,40,5.856,40,8z M28,7h8    v8h-8V7z M35.444,5h-6.887C29.25,3.81,30.526,3,32,3S34.75,3.81,35.444,5z M24,8c0-2.144,1.364-3.963,3.265-4.672    C26.475,4.345,26,5.616,26,7v8h-2V8z M46,61H18V33.409c3.873-4.022,6-9.295,6-14.894V17h16v1.515c0,5.599,2.127,10.872,6,14.894    V61z"/>
	</g>
</g>
</svg>
