<?xml version="1.0" encoding="iso-8859-1"?>
<!-- Generator: Adobe Illustrator 22.1.0, SVG Export Plug-In . SVG Version: 6.00 Build 0)  -->
<svg xmlns="http://www.w3.org/2000/svg" xmlns:xlink="http://www.w3.org/1999/xlink" version="1.1" id="Layer_1_1_" x="0px" y="0px" viewBox="0 0 64 64" style="enable-background:new 0 0 64 64;" xml:space="preserve" width="512" height="512">
<g>
	<g>
		<circle style="fill:#F0BC5E;" cx="32" cy="38" r="10"/>
	</g>
	<g>
		<path style="fill:#F0BC5E;" d="M20.5,19H16c-1.103,0-2-0.897-2-2v-6c0-1.103,0.897-2,2-2h34v6H24.5l-2.4,3.2    C21.726,18.7,21.127,19,20.5,19z"/>
	</g>
	<g>
		<rect x="27" y="14" width="2" height="7"/>
		<rect x="34" y="14" width="2" height="7"/>
		<rect x="41" y="14" width="2" height="7"/>
		<path d="M32,45c2.352,0,4.455-1.152,5.728-2.964l0.302,1.207l1.939-0.485l-1.242-4.97l-4.97,1.243l0.484,1.94l2.122-0.53    C35.504,41.985,33.864,43,32,43c-2.757,0-5-2.243-5-5s2.243-5,5-5c1.78,0,3.439,0.958,4.332,2.5l1.73-1.001    C36.814,32.341,34.491,31,32,31c-3.859,0-7,3.14-7,7S28.141,45,32,45z"/>
		<path d="M42,51c-2.206,0-4,1.794-4,4s1.794,4,4,4s4-1.794,4-4S44.206,51,42,51z M42,57c-1.103,0-2-0.897-2-2s0.897-2,2-2    s2,0.897,2,2S43.103,57,42,57z"/>
		<path d="M46.1,1.494C45.562,1.171,44.946,1,44.318,1c-1.16,0-2.237,0.576-2.882,1.542L41.24,2.837l-0.081-0.323    C40.937,1.623,40.139,1,39.219,1H24.781c-0.92,0-1.718,0.623-1.94,1.515L22.22,5h-1.983c-1.144,0-2.172,0.635-2.684,1.658    L16.382,9h2.236l0.724-1.447C19.513,7.212,19.855,7,20.236,7h23.527c0.381,0,0.724,0.212,0.895,0.553L45.382,9h2.236l-1.171-2.342    C45.936,5.635,44.907,5,43.764,5h-1.562l0.899-1.348c0.419-0.629,1.32-0.833,1.97-0.443l5.271,3.162C48.964,7.003,48,8.388,48,10    c0,2.206,1.794,4,4,4c0.296,0,0.583-0.037,0.861-0.099l-5.111,5.75L47.957,15h-2.002l-1.441,32.411C43.722,47.148,42.879,47,42,47    c-4.411,0-8,3.589-8,8c0,1.061,0.212,2.073,0.589,3H22.826c-1.609,0-2.926-1.259-2.997-2.867L18.223,19h-2.002l1.61,36.222    C17.95,57.901,20.144,60,22.826,60h12.939c1.468,1.826,3.715,3,6.235,3c4.411,0,8-3.589,8-8c0-2.755-1.4-5.19-3.527-6.629    l1.136-25.556L56,13.38V7.434L46.1,1.494z M24.281,5l0.501-2H39.22l0.5,2H24.281z M48,55c0,3.309-2.691,6-6,6s-6-2.691-6-6    s2.691-6,6-6S48,51.691,48,55z M50,10c0-1.103,0.897-2,2-2s2,0.897,2,2s-0.897,2-2,2S50,11.103,50,10z"/>
		<rect x="51" y="9" width="2" height="2"/>
	</g>
</g>
</svg>
