<?xml version="1.0" encoding="iso-8859-1"?>
<!-- Generator: Adobe Illustrator 22.1.0, SVG Export Plug-In . SVG Version: 6.00 Build 0)  -->
<svg xmlns="http://www.w3.org/2000/svg" xmlns:xlink="http://www.w3.org/1999/xlink" version="1.1" id="Layer_1_1_" x="0px" y="0px" viewBox="0 0 64 64" style="enable-background:new 0 0 64 64;" xml:space="preserve" width="512" height="512">
<g>
	<g>
		<g>
			<rect x="14" y="57" style="fill:#F0BC5E;" width="30" height="2"/>
		</g>
	</g>
	<g>
		<g>
			<rect x="46" y="57" style="fill:#F0BC5E;" width="4" height="2"/>
		</g>
	</g>
	<g>
		<g>
			<path style="fill:#F0BC5E;" d="M34.256,51H18V29.744C18,28.231,19.231,27,20.744,27h7.958c1.221,0,2.277,0.786,2.629,1.956     l5.554,18.512C36.961,47.722,37,47.987,37,48.256C37,49.769,35.769,51,34.256,51z"/>
		</g>
	</g>
	<g>
		<path d="M50,53.184v-28.24c0-3.431-1.906-6.516-4.975-8.05L33.236,11h-0.331l-0.73-7.299C32.021,2.161,30.737,1,29.19,1H18.81    c-1.547,0-2.831,1.161-2.985,2.701l-0.736,7.363c-0.509,0.127-0.958,0.438-1.256,0.885C12.633,13.747,12,15.839,12,18    s0.633,4.253,1.832,6.051C13.942,24.216,14,24.407,14,24.605v28.579c-1.161,0.414-2,1.514-2,2.816v4c0,1.654,1.346,3,3,3h34    c1.654,0,3-1.346,3-3v-4C52,54.698,51.161,53.598,50,53.184z M17.105,11l0.2-2H19v2H17.105z M21,9h2v2h-2V9z M25,9h2v2h-2V9z     M29,9h1.695l0.2,2H29V9z M18.81,3h10.38c0.516,0,0.944,0.387,0.995,0.9l0.31,3.1h-12.99l0.31-3.1C17.866,3.387,18.294,3,18.81,3z     M15.496,13.059C15.521,13.022,15.562,13,15.605,13h17.159l11.366,5.684c2.387,1.193,3.87,3.592,3.87,6.261V53H16V25h2v-2h-2.471    c-0.012-0.019-0.021-0.04-0.033-0.059C14.518,21.473,14,19.765,14,18S14.518,14.527,15.496,13.059z M50,60c0,0.551-0.449,1-1,1H15    c-0.551,0-1-0.449-1-1v-4c0-0.551,0.449-1,1-1h34c0.551,0,1,0.449,1,1V60z"/>
		<path d="M36.733,27.8C38.153,28.864,39,30.559,39,32.333V47.5c0,1.93,1.57,3.5,3.5,3.5s3.5-1.57,3.5-3.5V26.667    C46,22.991,43.009,20,39.333,20c-1.922,0-3.536,1.265-4.102,3H20v2h15.059C35.233,26.105,35.828,27.121,36.733,27.8z M39.333,22    C41.907,22,44,24.093,44,26.667V47.5c0,0.827-0.673,1.5-1.5,1.5S41,48.327,41,47.5V32.333c0-2.401-1.146-4.694-3.066-6.134    C37.349,25.762,37,25.064,37,24.333C37,23.047,38.047,22,39.333,22z"/>
		<rect x="22" y="41" width="8" height="2"/>
		<rect x="22" y="45" width="8" height="2"/>
	</g>
</g>
</svg>
