<?xml version="1.0" encoding="iso-8859-1"?>
<!-- Generator: Adobe Illustrator 22.1.0, SVG Export Plug-In . SVG Version: 6.00 Build 0)  -->
<svg xmlns="http://www.w3.org/2000/svg" xmlns:xlink="http://www.w3.org/1999/xlink" version="1.1" id="Layer_1_1_" x="0px" y="0px" viewBox="0 0 64 64" style="enable-background:new 0 0 64 64;" xml:space="preserve" width="512" height="512">
<g>
	<g>
		<rect x="13" y="39" width="2" height="3"/>
	</g>
	<g>
		<rect x="33" y="39" width="2" height="8"/>
	</g>
	<path d="M3,38v19h58V38H3z M33,49v6h-3V40h8v15h-3v-6H33z M23,53v2h-3V40h3v11h2V40h3v15h-3v-2H23z M13,44v11h-3V40h8v15h-3V44H13z    M40,40h3v15h-3V40z M45,40h3v15h-3V40z M5,40h3v15H5V40z M59,55h-4V44h-2v11h-3V40h9V55z"/>
	<g>
		<rect x="53" y="39" width="2" height="3"/>
	</g>
	<g>
		<g>
			<path style="fill:#F0BC5E;" d="M61,40H4c-1.654,0-3-1.346-3-3V20C1,12.832,6.832,7,14,7h41.591c1.265,0,2.399,0.8,2.824,1.991     l4.286,12.001C62.899,21.544,63,22.124,63,22.713v0.171C63,25.705,60.705,28,57.884,28c-2.144,0-4.076-1.354-4.809-3.368     l-2.536-6.974C50.396,17.265,50.019,17,49.6,17H14c-1.654,0-3,1.346-3,3v4.359c0,0.21,0.064,0.411,0.186,0.581l4.029,5.641     C15.402,30.844,15.707,31,16.029,31H61c1.103,0,2,0.897,2,2v5C63,39.103,62.103,40,61,40z"/>
		</g>
	</g>
</g>
</svg>
