<?xml version="1.0" encoding="iso-8859-1"?>
<!-- Generator: Adobe Illustrator 22.1.0, SVG Export Plug-In . SVG Version: 6.00 Build 0)  -->
<svg xmlns="http://www.w3.org/2000/svg" xmlns:xlink="http://www.w3.org/1999/xlink" version="1.1" id="Layer_1_1_" x="0px" y="0px" viewBox="0 0 64 64" style="enable-background:new 0 0 64 64;" xml:space="preserve" width="512" height="512">
<g>
	<g>
		<path style="fill:#F0BC5E;" d="M46.578,26.195C46.854,25.496,47,24.76,47,24c0-3.309-2.691-6-6-6c-0.119,0-0.234,0.013-0.352,0.02    C39.817,15.653,37.566,14,35,14c-1.069,0-2.087,0.289-2.994,0.816C31.114,14.298,30.085,14,29,14c-2.566,0-4.817,1.653-5.648,4.02    C23.234,18.013,23.119,18,23,18c-3.309,0-6,2.691-6,6c0,0.76,0.146,1.496,0.422,2.195C15.956,27.289,15,29.033,15,31h34    C49,29.033,48.044,27.289,46.578,26.195z"/>
	</g>
	<g>
		<rect x="20" y="57" style="fill:#F0BC5E;" width="17" height="2"/>
	</g>
	<g>
		<rect x="39" y="57" style="fill:#F0BC5E;" width="5" height="2"/>
	</g>
	<g>
		<path d="M48,30H27v-1h-2v1h-9c-1.302,0-2.402,0.839-2.816,2H9v1c0,6.274,3.639,11.702,8.91,14.322l0.956,12.9    C18.98,61.78,20.295,63,21.857,63h20.285c1.562,0,2.877-1.22,2.992-2.778l0.956-12.9C51.361,44.702,55,39.274,55,33v-1h-4.184    C50.402,30.839,49.302,30,48,30z M16,32h32c0.551,0,1,0.449,1,1s-0.449,1-1,1H16c-0.551,0-1-0.449-1-1S15.449,32,16,32z M27,45v2    h-2c-1.83,0-3.579-0.355-5.182-0.996L19.077,36h25.847l-0.741,10.004C42.579,46.645,40.83,47,39,47h-2v-2H27z M35,47v2h-6v-2H35z     M11.035,34h2.149c0.414,1.161,1.514,2,2.816,2h1.072l0.663,8.951C13.971,42.654,11.365,38.64,11.035,34z M43.14,60.074    C43.102,60.593,42.664,61,42.143,61H21.857c-0.521,0-0.959-0.407-0.998-0.926l-0.881-11.893C21.56,48.705,23.245,49,25,49h2v2h10    v-2h2c1.755,0,3.44-0.295,5.021-0.819L43.14,60.074z M46.265,44.951L46.928,36H48c1.302,0,2.402-0.839,2.816-2h2.149    C52.635,38.64,50.029,42.654,46.265,44.951z"/>
		<rect x="40" y="23" width="2" height="2"/>
		<rect x="22" y="22" width="2" height="2"/>
		<rect x="30" y="20" width="2" height="2"/>
		<rect x="35" y="26" width="2" height="2"/>
		<path d="M41,9c2.206,0,4-1.794,4-4s-1.794-4-4-4s-4,1.794-4,4S38.794,9,41,9z M41,3c1.103,0,2,0.897,2,2s-0.897,2-2,2    s-2-0.897-2-2S39.897,3,41,3z"/>
		<path d="M9,18c2.206,0,4-1.794,4-4s-1.794-4-4-4s-4,1.794-4,4S6.794,18,9,18z M9,12c1.103,0,2,0.897,2,2s-0.897,2-2,2    s-2-0.897-2-2S7.897,12,9,12z"/>
		<path d="M59,22c-2.206,0-4,1.794-4,4s1.794,4,4,4s4-1.794,4-4S61.206,22,59,22z M59,28c-1.103,0-2-0.897-2-2s0.897-2,2-2    s2,0.897,2,2S60.103,28,59,28z"/>
		<path d="M54,18c1.654,0,3-1.346,3-3s-1.346-3-3-3s-3,1.346-3,3S52.346,18,54,18z M54,14c0.551,0,1,0.449,1,1s-0.449,1-1,1    s-1-0.449-1-1S53.449,14,54,14z"/>
		<path d="M4,24c-1.654,0-3,1.346-3,3s1.346,3,3,3s3-1.346,3-3S5.654,24,4,24z M4,28c-0.551,0-1-0.449-1-1s0.449-1,1-1s1,0.449,1,1    S4.551,28,4,28z"/>
		<path d="M22,10c1.654,0,3-1.346,3-3s-1.346-3-3-3s-3,1.346-3,3S20.346,10,22,10z M22,6c0.551,0,1,0.449,1,1s-0.449,1-1,1    s-1-0.449-1-1S21.449,6,22,6z"/>
		<rect x="44" y="12" width="2" height="2"/>
		<rect x="12" y="5" width="2" height="2"/>
		<rect x="10" y="21" width="2" height="2"/>
		<rect x="50" y="25" width="2" height="2"/>
	</g>
</g>
</svg>
