<?xml version="1.0" encoding="iso-8859-1"?>
<!-- Generator: Adobe Illustrator 22.1.0, SVG Export Plug-In . SVG Version: 6.00 Build 0)  -->
<svg xmlns="http://www.w3.org/2000/svg" xmlns:xlink="http://www.w3.org/1999/xlink" version="1.1" id="Layer_1_1_" x="0px" y="0px" viewBox="0 0 64 64" style="enable-background:new 0 0 64 64;" xml:space="preserve" width="32" height="32">
<g>
	<g>
		<rect x="23" y="50" style="fill:#F0BC5E;" width="18" height="12"/>
	</g>
	<g>
		<path style="fill:#F0BC5E;" d="M54.242,35.03C49.979,33.963,47,30.149,47,25.754V16c0-8.271-6.729-15-15-15S17,7.729,17,16v9.754    c0,4.396-2.979,8.209-7.242,9.276l-1.377,0.344l1.459,2.188c1.247,1.871,2.956,3.337,4.976,4.281    c0.132-0.052,0.257-0.116,0.395-0.159L27,38v-4.339c-2.435-1.409-4.221-3.815-4.799-6.661H22c-2.209,0-4-1.791-4-4    c0-2.209,1.791-4,4-4c0-2.727,1.094-5.196,2.864-7h-0.1C24.289,11.469,24,10.768,24,10c0-1.657,1.343-3,3-3    c0.87,0,1.646,0.376,2.194,0.967C29.616,6.821,30.708,6,32,6s2.384,0.821,2.806,1.967C35.354,7.376,36.13,7,37,7    c1.657,0,3,1.343,3,3c0,0.768-0.289,1.469-0.764,2h-0.1C40.906,13.804,42,16.273,42,19c2.209,0,4,1.791,4,4c0,2.209-1.791,4-4,4    h-0.201c-0.578,2.846-2.364,5.252-4.799,6.661V38l11.79,3.684c0.137,0.043,0.262,0.107,0.395,0.159    c2.02-0.944,3.729-2.41,4.976-4.281l1.459-2.188L54.242,35.03z"/>
	</g>
	<g>
		<path d="M54,47.411c0-3.079-1.974-5.764-4.912-6.682L38,37.265v-3.057c2.21-1.445,3.864-3.663,4.589-6.267    C45.066,27.645,47,25.555,47,23c0-2.43-1.744-4.456-4.046-4.904c-0.189-2.312-1.089-4.425-2.49-6.112    C40.808,11.383,41,10.703,41,10c0-2.206-1.794-4-4-4c-0.666,0-1.32,0.171-1.9,0.488C34.354,5.567,33.219,5,32,5    s-2.354,0.567-3.1,1.488C28.32,6.171,27.666,6,27,6c-2.206,0-4,1.794-4,4c0,0.703,0.192,1.383,0.536,1.984    c-1.401,1.688-2.301,3.801-2.49,6.112C18.744,18.544,17,20.57,17,23c0,2.555,1.934,4.645,4.411,4.94    c0.724,2.605,2.379,4.822,4.589,6.267v3.057l-11.088,3.465C11.974,41.647,10,44.333,10,47.411V55h2v8h40v-8h2V47.411z     M44.525,49.939C45.477,50.891,46,52.155,46,53.5s-0.523,2.609-1.475,3.561L43,58.586V61H21v-2.414l-1.525-1.525    C18.523,56.109,18,54.845,18,53.5s0.523-2.609,1.475-3.561C20.458,48.956,21,47.648,21,46.257v-5.335l2-0.625V48h18v-7.702    l2,0.625v5.335C43,47.648,43.542,48.956,44.525,49.939z M37,15v2h-2v-2h-2v2h-2v-2h-2v2h-2v-2h-2v2h-1.768    c0.913-4.002,4.494-7,8.768-7s7.855,2.998,8.768,7H39v-2H37z M45,23c0,1.317-0.859,2.427-2.042,2.829    C42.979,25.554,43,25.28,43,25v-4.816C44.161,20.598,45,21.698,45,23z M39,10c0,0.161-0.026,0.319-0.064,0.473    c-0.99-0.807-2.125-1.437-3.356-1.862C35.963,8.219,36.463,8,37,8C38.103,8,39,8.897,39,10z M32,7    c0.768,0,1.453,0.465,1.781,1.158C33.2,8.062,32.608,8,32,8s-1.2,0.062-1.781,0.158C30.547,7.465,31.232,7,32,7z M27,8    c0.537,0,1.037,0.219,1.419,0.61c-1.231,0.425-2.366,1.056-3.356,1.862C25.026,10.318,25,10.161,25,10C25,8.897,25.897,8,27,8z     M19,23c0-1.302,0.839-2.402,2-2.816V25c0,0.28,0.021,0.554,0.042,0.829C19.859,25.427,19,24.317,19,23z M23,25v-6h18v6    c0,4.962-4.037,9-9,9S23,29.962,23,25z M32,36c1.412,0,2.758-0.277,4-0.764v2.35l-4,4l-4-4v-2.35C29.242,35.723,30.588,36,32,36z     M26.721,39.135L32,44.414l5.279-5.279L39,39.673V46H25v-6.327L26.721,39.135z M12,47.411c0-2.199,1.41-4.117,3.508-4.772    L19,41.547v4.71c0,0.856-0.334,1.662-0.939,2.268c-1.21,1.21-1.918,2.784-2.036,4.475H12V47.411z M14,55h2.164    c0.282,1.306,0.929,2.507,1.896,3.475L19,59.414V61h-5V55z M50,61h-5v-1.586l0.939-0.939c0.968-0.967,1.614-2.168,1.896-3.475H50    V61z M52,53h-4.024c-0.118-1.691-0.826-3.265-2.036-4.475C45.334,47.919,45,47.114,45,46.257v-4.71l3.492,1.091    C50.59,43.294,52,45.212,52,47.411V53z"/>
		<circle cx="37" cy="22" r="1"/>
		<circle cx="27" cy="22" r="1"/>
		<path d="M36,27h-2c0,1.103-0.897,2-2,2s-2-0.897-2-2h-2c0,2.206,1.794,4,4,4S36,29.206,36,27z"/>
		<rect x="23" y="54" width="12" height="2"/>
		<rect x="37" y="54" width="4" height="2"/>
	</g>
</g>
</svg>
