<?xml version="1.0" encoding="iso-8859-1"?>
<!-- Generator: Adobe Illustrator 22.1.0, SVG Export Plug-In . SVG Version: 6.00 Build 0)  -->
<svg xmlns="http://www.w3.org/2000/svg" xmlns:xlink="http://www.w3.org/1999/xlink" version="1.1" id="Layer_1_1_" x="0px" y="0px" viewBox="0 0 64 64" style="enable-background:new 0 0 64 64;" xml:space="preserve" width="512" height="512">
<g>
	<path d="M52.65,7.241C52.354,6.986,45.274,1,37,1S21.646,6.986,21.35,7.241l-0.701,0.601l2.073,2.851C26.829,16.34,29,23.016,29,30   h2c0-7.409-2.304-14.493-6.661-20.484l-0.963-1.324c1.186-0.887,3.732-2.621,6.918-3.841c1.136,2.314,2.065,4.733,2.742,7.219   l1.93-0.525c-0.685-2.521-1.62-4.976-2.757-7.33C33.727,3.282,35.343,3,37,3c1.657,0,3.273,0.282,4.792,0.714   c-1.137,2.356-2.072,4.812-2.757,7.33l1.93,0.525c0.675-2.483,1.604-4.902,2.741-7.219c3.186,1.22,5.733,2.954,6.918,3.841   l-0.963,1.324C45.304,15.507,43,22.591,43,30h2c0-6.984,2.171-13.66,6.278-19.308l2.073-2.851L52.65,7.241z"/>
	<g>
		<path d="M46,41h-0.685c0.112-0.314,0.184-0.648,0.184-1c0-1.654-1.346-3-3-3H41v-3h-2v3h-4v-3h-2v3h-1.415l-4,4H13l0.001,15    h10.585l3,3H33v4h8v-4h5c1.654,0,3-1.346,3-3c0-0.771-0.301-1.468-0.78-2c0.48-0.532,0.78-1.229,0.78-2s-0.301-1.468-0.78-2    c0.48-0.532,0.78-1.229,0.78-2s-0.301-1.468-0.78-2c0.48-0.532,0.78-1.229,0.78-2C49,42.346,47.654,41,46,41z M47,44    c0,0.551-0.448,1-1,1H35c-0.43,0-0.789-0.275-0.93-0.656L35.413,43H42h0.499H46C46.552,43,47,43.449,47,44z M47,48    c0,0.551-0.448,1-1,1H35c-0.552,0-1-0.449-1-1s0.448-1,1-1h11C46.552,47,47,47.449,47,48z M47,52c0,0.551-0.448,1-1,1H35    c-0.552,0-1-0.449-1-1s0.448-1,1-1h11C46.552,51,47,51.449,47,52z M24.414,54h-9.413L15,43h13.413l4-4h10.086c0.552,0,1,0.449,1,1    s-0.448,1-1,1H42h-7.415l-7.293,7.293l1.414,1.414l3.908-3.908c0.053,0.069,0.108,0.137,0.166,0.201    c-0.48,0.532-0.78,1.229-0.78,2s0.301,1.468,0.78,2c-0.48,0.532-0.78,1.229-0.78,2s0.301,1.468,0.78,2    c-0.48,0.532-0.78,1.229-0.78,2c0,0.352,0.072,0.686,0.184,1h-4.77L24.414,54z M39,61h-4v-2h4V61z M46,57h-5h-6    c-0.552,0-1-0.449-1-1s0.448-1,1-1h11c0.552,0,1,0.449,1,1S46.552,57,46,57z"/>
		<rect x="52" y="38" width="2" height="2"/>
		<rect x="50" y="40" width="2" height="2"/>
		<rect x="52" y="42" width="2" height="2"/>
		<rect x="54" y="40" width="2" height="2"/>
	</g>
	<g>
		<path d="M41.459,24.157l-1.975-0.314c0.882-5.545,2.924-10.737,6.07-15.433l1.662,1.113C44.232,13.977,42.295,18.9,41.459,24.157z    "/>
	</g>
	<g>
		<path d="M41.051,28.052l-1.998-0.104c0.036-0.688,0.09-1.371,0.161-2.052l1.988,0.208C41.135,26.75,41.085,27.4,41.051,28.052z"/>
	</g>
	<g>
		<g>
			<path style="fill:#F0BC5E;" d="M43,35H31c-1.103,0-2-0.897-2-2v-4h16v4C45,34.103,44.103,35,43,35z"/>
		</g>
	</g>
	<g>
		<path d="M32.949,28.052c-0.034-0.652-0.084-1.302-0.151-1.948l1.988-0.208c0.071,0.681,0.125,1.364,0.161,2.052L32.949,28.052z"/>
	</g>
	<g>
		<path d="M32.541,24.157c-0.836-5.256-2.773-10.18-5.758-14.634l1.662-1.113c3.146,4.696,5.188,9.888,6.07,15.433L32.541,24.157z"/>
	</g>
	<g>
		<rect x="52" y="19" width="2" height="2"/>
	</g>
	<g>
		<rect x="50" y="21" width="2" height="2"/>
	</g>
	<g>
		<rect x="52" y="23" width="2" height="2"/>
	</g>
	<g>
		<rect x="54" y="21" width="2" height="2"/>
	</g>
	<g>
		<rect x="17" y="26" width="2" height="2"/>
	</g>
	<g>
		<rect x="15" y="28" width="2" height="2"/>
	</g>
	<g>
		<rect x="17" y="30" width="2" height="2"/>
	</g>
	<g>
		<rect x="19" y="28" width="2" height="2"/>
	</g>
	<g>
		<rect x="15" y="5" width="2" height="2"/>
	</g>
	<g>
		<rect x="13" y="7" width="2" height="2"/>
	</g>
	<g>
		<rect x="15" y="9" width="2" height="2"/>
	</g>
	<g>
		<rect x="17" y="7" width="2" height="2"/>
	</g>
	<g>
		<g>
			<path style="fill:#F0BC5E;" d="M13,59H9c-1.103,0-2-0.897-2-2V40c0-1.103,0.897-2,2-2h4c1.103,0,2,0.897,2,2v17     C15,58.103,14.103,59,13,59z"/>
		</g>
	</g>
</g>
</svg>
