<?xml version="1.0" encoding="iso-8859-1"?>
<!-- Generator: Adobe Illustrator 22.1.0, SVG Export Plug-In . SVG Version: 6.00 Build 0)  -->
<svg xmlns="http://www.w3.org/2000/svg" xmlns:xlink="http://www.w3.org/1999/xlink" version="1.1" id="Layer_1_1_" x="0px" y="0px" viewBox="0 0 64 64" style="enable-background:new 0 0 64 64;" xml:space="preserve" width="512" height="512">
<g>
	<g>
		<rect x="24" y="57" style="fill:#F0BC5E;" width="11" height="2"/>
	</g>
	<g>
		<rect x="37" y="57" style="fill:#F0BC5E;" width="3" height="2"/>
	</g>
	<g>
		<g>
			<path style="fill:#F0BC5E;" d="M38,36H26c-2.206,0-4-1.794-4-4s1.794-4,4-4h12c2.206,0,4,1.794,4,4S40.206,36,38,36z"/>
		</g>
	</g>
	<g>
		<path d="M24,22c0-4.186,1.787-8.078,4.554-9.916l-1.107-1.666C24.087,12.65,22,17.088,22,22H24z"/>
		<path d="M32,11V9c-0.774,0-1.545,0.115-2.291,0.342l0.582,1.913C30.849,11.086,31.423,11,32,11z"/>
		<path d="M52,7H38.574C36.612,5.727,34.376,5,32,5s-4.612,0.727-6.574,2H12c-1.103,0-2,0.897-2,2v4c0,1.103,0.897,2,2,2h0.153    l0.333,2H9v2h3.82l1.637,9.822c0.331,1.986,1.794,3.507,3.661,3.996C18.041,33.201,18,33.596,18,34c0,0.341,0.035,0.674,0.09,1H18    v1c0,5.443,3.088,10.235,7.792,12.547l-2.75,9.166L23,63h18v-5l-2.795-9.452C42.91,46.237,46,41.444,46,36v-1h-0.09    c0.055-0.326,0.09-0.659,0.09-1c0-0.404-0.041-0.799-0.118-1.182c1.867-0.489,3.33-2.01,3.661-3.996L51.847,15H52    c1.103,0,2-0.897,2-2V9C54,7.897,53.103,7,52,7z M44,22c0,2.324-0.455,4.597-1.278,6.66C41.904,28.241,40.981,28,40,28H24    c-0.98,0-1.904,0.241-2.722,0.66C20.455,26.597,20,24.324,20,22c0-8.271,5.383-15,12-15S44,13.729,44,22z M24,30h16    c2.206,0,4,1.794,4,4s-1.794,4-4,4H24c-2.206,0-4-1.794-4-4S21.794,30,24,30z M12,9h10.997c-1.115,1.141-2.074,2.494-2.853,4H12V9    z M16.43,28.493L14.847,19H17v-2h-2.486l-0.333-2h5.076C18.457,17.138,18,19.503,18,22c0,2.767,0.562,5.49,1.614,7.919    c-0.293,0.314-0.551,0.659-0.772,1.031C17.617,30.726,16.641,29.762,16.43,28.493z M34.771,47.679l0.459,1.946    c0.381-0.09,0.753-0.196,1.12-0.315L39,58.147V61H25v-2.853l2.651-8.837c0.366,0.119,0.739,0.225,1.12,0.315l0.459-1.946    c-4.524-1.069-7.903-4.58-8.911-8.952C21.336,39.522,22.612,40,24,40h16c1.388,0,2.664-0.478,3.682-1.273    C42.674,43.1,39.294,46.61,34.771,47.679z M47.57,28.493c-0.212,1.269-1.188,2.233-2.412,2.457    c-0.221-0.371-0.479-0.717-0.772-1.031C45.438,27.49,46,24.767,46,22c0-2.497-0.457-4.862-1.257-7h5.076L47.57,28.493z M52,13    h-8.145c-0.778-1.506-1.737-2.859-2.853-4H52V13z"/>
		<polygon points="6.293,27.293 7.707,28.707 9,27.414 9,34 11,34 11,27.414 12.293,28.707 13.707,27.293 10,23.586   "/>
		<rect x="9" y="36" width="2" height="2"/>
		<rect x="48" y="41" width="2" height="2"/>
		<rect x="46" y="43" width="2" height="2"/>
		<rect x="48" y="45" width="2" height="2"/>
		<rect x="50" y="43" width="2" height="2"/>
		<rect x="59" y="57" width="2" height="2"/>
		<rect x="57" y="59" width="2" height="2"/>
		<rect x="59" y="61" width="2" height="2"/>
		<rect x="61" y="59" width="2" height="2"/>
		<rect x="56" y="1" width="2" height="2"/>
		<rect x="54" y="3" width="2" height="2"/>
		<rect x="56" y="5" width="2" height="2"/>
		<rect x="58" y="3" width="2" height="2"/>
		<rect x="3" y="44" width="2" height="2"/>
		<rect x="1" y="46" width="2" height="2"/>
		<rect x="3" y="48" width="2" height="2"/>
		<rect x="5" y="46" width="2" height="2"/>
		<rect x="3" y="1" width="2" height="2"/>
		<rect x="1" y="3" width="2" height="2"/>
		<rect x="3" y="5" width="2" height="2"/>
		<rect x="5" y="3" width="2" height="2"/>
	</g>
</g>
</svg>
