<?xml version="1.0" encoding="iso-8859-1"?>
<!-- Generator: Adobe Illustrator 22.1.0, SVG Export Plug-In . SVG Version: 6.00 Build 0)  -->
<svg xmlns="http://www.w3.org/2000/svg" xmlns:xlink="http://www.w3.org/1999/xlink" version="1.1" id="Layer_1_1_" x="0px" y="0px" viewBox="0 0 64 64" style="enable-background:new 0 0 64 64;" xml:space="preserve" width="512" height="512">
<g>
	<g>
		<g>
			<path style="fill:#F0BC5E;" d="M58,58H36V41c0-6.065,4.935-11,11-11s11,4.935,11,11V58z"/>
		</g>
	</g>
	<g>
		<path d="M47,51c-0.932,0-1.815-0.316-2.527-0.899c-0.915-0.092-1.763-0.492-2.422-1.151c-0.659-0.658-1.06-1.507-1.151-2.422    C40.316,45.815,40,44.932,40,44s0.316-1.815,0.899-2.527c0.092-0.915,0.493-1.764,1.151-2.422c0.659-0.659,1.507-1.06,2.422-1.151    c1.424-1.166,3.631-1.166,5.055,0c0.915,0.092,1.763,0.492,2.422,1.151c0.659,0.658,1.06,1.507,1.151,2.422    C53.684,42.185,54,43.068,54,44s-0.316,1.815-0.899,2.527c-0.092,0.915-0.493,1.764-1.151,2.422    c-0.659,0.659-1.507,1.06-2.422,1.151C48.815,50.684,47.932,51,47,51z M44.879,39.879c-0.534,0-1.037,0.208-1.415,0.586    c-0.377,0.378-0.585,0.88-0.585,1.414v0.414l-0.293,0.293C42.208,42.964,42,43.466,42,44s0.208,1.036,0.586,1.414l0.293,0.293    v0.414c0,0.534,0.208,1.036,0.585,1.414c0.378,0.378,0.88,0.586,1.414,0.586h0.414l0.293,0.293c0.756,0.756,2.073,0.756,2.829,0    l0.293-0.293h0.414c0.534,0,1.036-0.208,1.414-0.586c0.377-0.378,0.585-0.88,0.585-1.414v-0.414l0.293-0.293    C51.792,45.036,52,44.534,52,44s-0.208-1.036-0.586-1.414l-0.293-0.293v-0.414c0-0.534-0.208-1.036-0.585-1.414    c-0.378-0.378-0.88-0.586-1.415-0.586h-0.415l-0.293-0.293c-0.755-0.756-2.072-0.756-2.827,0l-0.293,0.293H44.879z"/>
	</g>
	<g>
		<path d="M47,47c-1.654,0-3-1.346-3-3s1.346-3,3-3s3,1.346,3,3S48.654,47,47,47z M47,43c-0.551,0-1,0.448-1,1s0.449,1,1,1    s1-0.448,1-1S47.551,43,47,43z"/>
	</g>
	<path d="M60.586,26.172l-2.758-2.758c-0.941-0.942-1.538-2.133-1.743-3.423C57.148,19.946,58,19.074,58,18v-4c0-1.103-0.897-2-2-2   V6c0-2.757-2.243-5-5-5h-8c-2.757,0-5,2.243-5,5v6c-1.103,0-2,0.897-2,2v4c0,1.074,0.852,1.946,1.915,1.991   c-0.205,1.29-0.802,2.481-1.743,3.423l-2.758,2.758C31.857,27.729,31,29.798,31,32v8.807l-2-5V31c0-1.103-0.897-2-2-2H7   c-1.103,0-2,0.897-2,2v4.788l-2.073,4.664C1.648,43.329,1,46.385,1,49.533c0,2.408,0.386,4.787,1.147,7.072L4.279,63h25.414   l1.449-3.864C31.66,61.345,33.635,63,36,63h22c2.757,0,5-2.243,5-5V32C63,29.798,62.143,27.729,60.586,26.172z M56,14l0.001,4H54   v-4H56z M40,6c0-1.654,1.346-3,3-3h8c1.654,0,3,1.346,3,3v2H40V6z M40,10h14v2H40V10z M52,14v4h-2v-4H52z M48,14v4h-2v-4H48z    M44,14v4h-2v-4H44z M38,14h2v4h-2V14z M27,31v4H7v-4H27z M4.045,55.973C3.352,53.893,3,51.726,3,49.533   c0-2.867,0.59-5.649,1.755-8.27L6.65,37h14.548l0.906,4.075C22.698,43.752,23,46.5,23,49.242c0,3.074-0.378,6.146-1.124,9.131   L21.219,61H5.721L4.045,55.973z M28.307,61h-5.026l0.536-2.143C24.602,55.715,25,52.479,25,49.242c0-2.888-0.318-5.781-0.944-8.601   L23.246,37h4.076l2.221,5.552C30.51,44.967,31,47.512,31,50.126c0,2.45-0.436,4.855-1.297,7.15L28.307,61z M61,58   c0,1.654-1.346,3-3,3H36c-1.654,0-3-1.346-3-3V32c0-1.667,0.649-3.235,1.828-4.414l2.758-2.758   c1.318-1.318,2.128-3.006,2.347-4.828h14.133c0.219,1.822,1.029,3.51,2.347,4.828l2.758,2.758C60.351,28.765,61,30.333,61,32V58z"/>
	<g>
		<g>
			<path style="fill:#F0BC5E;" d="M17,56H7c-1.103,0-2-0.897-2-2V44c0-1.103,0.897-2,2-2h10c1.103,0,2,0.897,2,2v10     C19,55.103,18.103,56,17,56z"/>
		</g>
	</g>
	<g>
		<rect x="11" y="46" width="2" height="2"/>
	</g>
	<g>
		<rect x="13" y="50" width="2" height="2"/>
	</g>
	<g>
		<rect x="9" y="50" width="2" height="2"/>
	</g>
</g>
</svg>
