<?xml version="1.0" encoding="iso-8859-1"?>
<!-- Generator: Adobe Illustrator 22.1.0, SVG Export Plug-In . SVG Version: 6.00 Build 0)  -->
<svg xmlns="http://www.w3.org/2000/svg" xmlns:xlink="http://www.w3.org/1999/xlink" version="1.1" id="Layer_1_1_" x="0px" y="0px" viewBox="0 0 64 64" style="enable-background:new 0 0 64 64;" xml:space="preserve" width="512" height="512">
<g>
	<g>
		<path d="M58,63c-2.611,0-4.761-2.012-4.981-4.567l-9.726-9.726l1.414-1.414L55,57.586V58c0,1.654,1.346,3,3,3s3-1.346,3-3    s-1.346-3-3-3h-0.414L47.293,44.707l1.414-1.414l9.726,9.726C60.988,53.238,63,55.389,63,58C63,60.757,60.757,63,58,63z"/>
	</g>
	<g>
		<path style="fill:#F0BC5E;" d="M41,50c-2.242,0-4.398-0.846-6.049-2.347C33.389,48.851,31.485,49.5,29.5,49.5    c-4.154,0-7.717-2.814-8.717-6.784c-3.185-0.809-5.691-3.314-6.499-6.5c-3.186-0.808-5.691-3.314-6.5-6.499    C3.814,28.717,1,25.154,1,21c0-2.049,0.689-4.007,1.958-5.596C2.002,13.943,1.5,12.265,1.5,10.5c0-4.963,4.037-9,9-9    c1.765,0,3.443,0.502,4.904,1.458C16.993,1.689,18.951,1,21,1c4.154,0,7.717,2.814,8.717,6.784c3.185,0.809,5.691,3.314,6.499,6.5    c3.186,0.808,5.691,3.314,6.5,6.499c3.97,1,6.784,4.562,6.784,8.717c0,1.985-0.649,3.889-1.847,5.451    C49.154,36.602,50,38.758,50,41C50,45.963,45.963,50,41,50z"/>
	</g>
	<g>
		<rect x="23" y="6.172" transform="matrix(0.7071 -0.7071 0.7071 0.7071 0.6655 19.6066)" width="2" height="5.657"/>
	</g>
	<g>
		<rect x="18" y="11.172" transform="matrix(0.7071 -0.7071 0.7071 0.7071 -4.3345 17.5355)" width="2" height="5.657"/>
	</g>
	<g>
		<rect x="13" y="16.172" transform="matrix(0.7071 -0.7071 0.7071 0.7071 -9.3345 15.4645)" width="2" height="5.657"/>
	</g>
	<g>
		<rect x="8" y="21.172" transform="matrix(0.7071 -0.7071 0.7071 0.7071 -14.3345 13.3934)" width="2" height="5.657"/>
	</g>
	<g>
		<rect x="32" y="15.172" transform="matrix(0.7071 -0.7071 0.7071 0.7071 -3.0624 28.6066)" width="2" height="5.657"/>
	</g>
	<g>
		<rect x="27" y="20.172" transform="matrix(0.7071 -0.7071 0.7071 0.7071 -8.0624 26.5355)" width="2" height="5.657"/>
	</g>
	<g>
		<rect x="22" y="25.172" transform="matrix(0.7071 -0.7071 0.7071 0.7071 -13.0624 24.4645)" width="2" height="5.657"/>
	</g>
	<g>
		<rect x="17" y="30.172" transform="matrix(0.7071 -0.7071 0.7071 0.7071 -18.0624 22.3934)" width="2" height="5.657"/>
	</g>
	<g>
		<rect x="41" y="24.172" transform="matrix(0.7071 -0.7071 0.7071 0.7071 -6.7904 37.6066)" width="2" height="5.657"/>
	</g>
	<g>
		<rect x="36" y="29.172" transform="matrix(0.7071 -0.7071 0.7071 0.7071 -11.7904 35.5355)" width="2" height="5.657"/>
	</g>
	<g>
		<rect x="31" y="34.172" transform="matrix(0.7071 -0.7071 0.7071 0.7071 -16.7904 33.4645)" width="2" height="5.657"/>
	</g>
	<g>
		<rect x="26" y="39.172" transform="matrix(0.7071 -0.7071 0.7071 0.7071 -21.7904 31.3934)" width="2" height="5.657"/>
	</g>
	<g>
		<rect x="44" y="37.172" transform="matrix(0.7071 -0.7071 0.7071 0.7071 -15.1041 43.5355)" width="2" height="5.657"/>
	</g>
	<g>
		<rect x="39" y="42.172" transform="matrix(0.7071 -0.7071 0.7071 0.7071 -20.1041 41.4645)" width="2" height="5.657"/>
	</g>
	<g>
		<rect x="57" y="57" width="2" height="2"/>
	</g>
	<g>
		<rect x="11" y="4.172" transform="matrix(0.7071 -0.7071 0.7071 0.7071 -1.435 10.5355)" width="2" height="5.657"/>
	</g>
	<g>
		<rect x="6" y="9.172" transform="matrix(0.7071 -0.7071 0.7071 0.7071 -6.435 8.4645)" width="2" height="5.657"/>
	</g>
	<g>
		<rect x="36" y="6" width="2" height="2"/>
	</g>
	<g>
		<rect x="49" y="13" width="2" height="2"/>
	</g>
	<g>
		<rect x="34" y="52" width="2" height="2"/>
	</g>
	<g>
		<rect x="56" y="41" width="2" height="2"/>
	</g>
	<g>
		<rect x="1" y="45" width="2" height="2"/>
	</g>
	<g>
		<rect x="11" y="38" width="2" height="2"/>
	</g>
	<g>
		<path d="M16,54c-2.757,0-5-2.243-5-5h2c0,1.654,1.346,3,3,3V54z"/>
	</g>
	<g>
		<path d="M59,35h-2c0-1.654-1.346-3-3-3v-2C56.757,30,59,32.243,59,35z"/>
	</g>
	<g>
		<path d="M45,6h-2c0-2.757,2.243-5,5-5v2C46.346,3,45,4.346,45,6z"/>
	</g>
</g>
</svg>
