<?xml version="1.0" encoding="iso-8859-1"?>
<!-- Generator: Adobe Illustrator 22.1.0, SVG Export Plug-In . SVG Version: 6.00 Build 0)  -->
<svg xmlns="http://www.w3.org/2000/svg" xmlns:xlink="http://www.w3.org/1999/xlink" version="1.1" id="Layer_1_1_" x="0px" y="0px" viewBox="0 0 64 64" style="enable-background:new 0 0 64 64;" xml:space="preserve" width="512" height="512">
<g>
	<g>
		<g>
			<rect x="19" y="7" style="fill:#F0BC5E;" width="4" height="4"/>
		</g>
	</g>
	<path d="M35.327,43.547C35.091,40.955,32.951,39,30.347,39H24.18L24,37.917V4c0-1.654-1.346-3-3-3s-3,1.346-3,3v33.917L17.82,39   h-6.167c-2.604,0-4.744,1.955-4.979,4.547L4.905,63H31v-2H11.112l1.455-16h16.868l1.059,11.65l1.992-0.182L31.261,43h-6.414   l-0.333-2h5.833c1.562,0,2.846,1.173,2.987,2.729l0.804,8.839l1.992-0.182L35.327,43.547z M21,3c0.551,0,1,0.449,1,1v33h-2V4   C20,3.449,20.449,3,21,3z M10.74,43L9.103,61H7.095l1.57-17.271C8.807,42.173,10.091,41,11.653,41h5.833l-0.333,2H10.74z M19.18,43   l0.667-4h2.306l0.667,4H19.18z"/>
	<g>
		<path style="fill:#F0BC5E;" d="M59.133,63H30v-3.826c0-2.924,1.558-5.675,4.064-7.179c0.805-0.482,1.504-1.149,2.023-1.929    l3.718-5.577C40.844,42.931,42.582,42,44.456,42c1.939,0,3.712,0.982,4.74,2.627l2.63,4.208c0.586,0.937,1.396,1.731,2.341,2.299    c2.393,1.437,3.964,3.848,4.31,6.615L59.133,63z"/>
	</g>
	<g>
		<rect x="45" y="53" width="2" height="2"/>
	</g>
	<g>
		<rect x="36" y="57" width="2" height="2"/>
	</g>
	<g>
		<rect x="43" y="47" width="2" height="2"/>
	</g>
	<g>
		<rect x="52" y="57" width="2" height="2"/>
	</g>
</g>
</svg>
