<?xml version="1.0" encoding="iso-8859-1"?>
<!-- Generator: Adobe Illustrator 22.1.0, SVG Export Plug-In . SVG Version: 6.00 Build 0)  -->
<svg xmlns="http://www.w3.org/2000/svg" xmlns:xlink="http://www.w3.org/1999/xlink" version="1.1" id="Layer_1_1_" x="0px" y="0px" viewBox="0 0 64 64" style="enable-background:new 0 0 64 64;" xml:space="preserve" width="512" height="512">
<g>
	<g>
		<circle style="fill:#F0BC5E;" cx="32" cy="43" r="12"/>
	</g>
	<path d="M43.375,42.219l-2.462,1.97C40.964,43.796,41,43.401,41,43c0-4.963-4.037-9-9-9s-9,4.037-9,9s4.037,9,9,9v-2   c-3.859,0-7-3.141-7-7s3.141-7,7-7s7,3.141,7,7c0,0.579-0.077,1.146-0.215,1.698l-1.928-3.213l-1.715,1.029l3.589,5.981   l5.894-4.715L43.375,42.219z"/>
	<path d="M50.364,49.932l-1.341-4.023l0.771-5.393C49.931,39.558,50,38.581,50,37.611c0-3.171-0.75-6.347-2.168-9.184   c-0.709-1.416-1.896-2.55-3.342-3.193L38,22.35v-3.189l4.862-14.584C42.954,4.298,43,4.01,43,3.721C43,2.221,41.779,1,40.279,1   H27.618C26.175,1,25,2.174,25,3.618c0,0.404,0.096,0.809,0.276,1.171L25.882,6h-0.407C23.559,6,22,7.559,22,9.475   c0,0.49,0.101,0.965,0.299,1.412L26,19.213v3.137l-6.49,2.885c-1.446,0.643-2.633,1.777-3.342,3.193   C14.75,31.265,14,34.44,14,37.611c0,0.97,0.069,1.946,0.206,2.904l0.771,5.393l-1.341,4.023C13.214,51.196,13,52.514,13,53.847   c0,2.244,0.61,4.447,1.765,6.371C15.794,61.934,17.677,63,19.678,63h24.645c2.001,0,3.884-1.066,4.913-2.782   C50.39,58.294,51,56.091,51,53.847C51,52.514,50.786,51.196,50.364,49.932z M24,9.475C24,8.662,24.661,8,25.475,8h1.407   l2.224,4.447l1.789-0.895l-3.829-7.658C27.022,3.809,27,3.713,27,3.618C27,3.277,27.277,3,27.618,3h9.046l-1.623,5.518l1.918,0.564   L38.748,3h1.531C40.677,3,41,3.323,41,3.721c0,0.077-0.013,0.156-0.036,0.228L36.28,18h-1.944l1.682-5.718L34.1,11.718L32.252,18   H27.65l-3.523-7.926C24.043,9.885,24,9.683,24,9.475z M36,20v2h-8v-2H36z M47.521,59.188C46.851,60.306,45.625,61,44.322,61H19.678   c-1.303,0-2.528-0.694-3.198-1.812C15.512,57.576,15,55.729,15,53.847c0-1.118,0.18-2.222,0.532-3.282l0.653-1.958l1.039,2.078   l3.221,2.147l1.109-1.664l-2.779-1.853l-1.808-3.617l-0.781-5.466C16.062,39.368,16,38.486,16,37.611   c0-2.862,0.677-5.729,1.957-8.289c0.501-1.002,1.342-1.805,2.365-2.26L27.212,24h9.576l6.89,3.062   c1.023,0.456,1.864,1.258,2.365,2.26C47.323,31.883,48,34.749,48,37.611c0,0.875-0.062,1.757-0.187,2.621l-0.351,2.456L46,39.764   V36h-2v4.236l3.074,6.149l1.393,4.18C48.82,51.625,49,52.729,49,53.847C49,55.729,48.488,57.576,47.521,59.188z"/>
</g>
</svg>
