<?xml version="1.0" encoding="iso-8859-1"?>
<!-- Generator: Adobe Illustrator 22.1.0, SVG Export Plug-In . SVG Version: 6.00 Build 0)  -->
<svg xmlns="http://www.w3.org/2000/svg" xmlns:xlink="http://www.w3.org/1999/xlink" version="1.1" id="Layer_1_1_" x="0px" y="0px" viewBox="0 0 64 64" style="enable-background:new 0 0 64 64;" xml:space="preserve" width="512" height="512">
<g>
	<g>
		<path d="M43.5,10c-0.539,0-1.044,0.133-1.5,0.351V8c0-2.206-1.794-4-4-4c-0.749,0-1.443,0.22-2.043,0.579    C35.744,2.574,34.062,1,32,1s-3.744,1.574-3.957,3.579C27.443,4.22,26.749,4,26,4c-2.206,0-4,1.794-4,4v15.141l-2.227-4.007    C19.043,17.818,17.654,17,16.147,17C13.86,17,12,18.861,12,21.148v0.223c0,0.552,0.107,1.088,0.319,1.595l4.202,10.085    c0.385,0.925,0.832,1.833,1.327,2.698l0.226,0.396C19.988,39.494,21,43.304,21,47.162V56h2v-8.838    c0-4.206-1.103-8.358-3.189-12.008l-0.226-0.396c-0.454-0.795-0.864-1.628-1.218-2.476l-4.202-10.086    C14.056,21.934,14,21.656,14,21.371v-0.223C14,19.963,14.963,19,16.147,19c0.78,0,1.5,0.423,1.878,1.105L22,27.259v0.579    l-0.948,2.846l1.896,0.633L24,28.162V8c0-1.103,0.897-2,2-2s2,0.897,2,2v16v3h2v-3V8V5c0-1.103,0.897-2,2-2s2,0.897,2,2v3v16v3h2    v-3V8c0-1.103,0.897-2,2-2s2,0.897,2,2v5.5V23v4h2v-4v-9.5c0-0.827,0.673-1.5,1.5-1.5s1.5,0.673,1.5,1.5v13.576    c0,3.126-0.644,6.161-1.914,9.018C41.702,39.209,41,42.517,41,45.925V56h2V45.925c0-3.127,0.644-6.161,1.914-9.019    C46.298,33.791,47,30.483,47,27.076V13.5C47,11.57,45.43,10,43.5,10z"/>
		<path d="M42.016,33.311l-1.9-0.621c-0.196,0.602-0.427,1.2-0.722,1.865l1.865,0.727C41.544,34.639,41.799,33.976,42.016,33.311z"/>
		<path d="M37,45.925V51h2v-5.075c0-2.945,0.487-5.838,1.448-8.596l-1.889-0.658C37.524,39.641,37,42.755,37,45.925z"/>
	</g>
	<g>
		<g>
			<path style="fill:#F0BC5E;" d="M43,63H21c-1.103,0-2-0.897-2-2v-4c0-1.103,0.897-2,2-2h22c1.103,0,2,0.897,2,2v4     C45,62.103,44.103,63,43,63z"/>
		</g>
	</g>
</g>
</svg>
