<?xml version="1.0" encoding="iso-8859-1"?>
<!-- Generator: Adobe Illustrator 22.1.0, SVG Export Plug-In . SVG Version: 6.00 Build 0)  -->
<svg xmlns="http://www.w3.org/2000/svg" xmlns:xlink="http://www.w3.org/1999/xlink" version="1.1" id="Layer_1_1_" x="0px" y="0px" viewBox="0 0 64 64" style="enable-background:new 0 0 64 64;" xml:space="preserve" width="512" height="512">
<g>
	<g>
		<path d="M36.406,36H35v-2h1.406c0.328,0,0.658-0.032,0.981-0.097l12.635-2.528c0.242-0.048,0.479-0.114,0.709-0.197l0.676,1.882    c-0.322,0.116-0.656,0.209-0.992,0.276l-12.636,2.527C37.326,35.954,36.865,36,36.406,36z"/>
	</g>
	<g>
		<path d="M58.707,26.707l-1.414-1.414l3.187-3.187C60.815,21.771,61,21.323,61,20.848c0-0.534-0.187-0.983-0.524-1.322    c-0.714-0.712-1.943-0.648-2.588-0.001l-0.315,0.315l-1.414-1.414l0.315-0.315C57.19,17.394,58.141,17,59.15,17    c1.067,0,2.021,0.395,2.738,1.111c0.718,0.716,1.112,1.669,1.111,2.682c0,1.064-0.393,2.013-1.106,2.727L58.707,26.707z"/>
	</g>
	<g>
		<path style="fill:#F0BC5E;" d="M32,48c-2.206,0-4-1.794-4-4V23.465l8.078-5.386C36.655,17.694,37,17.051,37,16.356V16.07h1    l-0.201-0.942c1.957-0.423,3.985,0.209,5.385,1.59c0.972-0.527,2.061-0.771,3.165-0.707C47.178,13.639,49.42,12,52,12    c3.309,0,6,2.691,6,6c0,1.261-0.388,2.455-1.108,3.461C58.214,22.589,59,24.241,59,26c0,2.155-1.158,4.127-3,5.191V42    c0,1.654-1.346,3-3,3s-3-1.346-3-3V31.173c-1.146-0.73-2.114-2.005-2.655-3.173c-0.001,0-0.001,0-0.002,0H36v16    C36,46.206,34.206,48,32,48z"/>
	</g>
	<g>
		<path style="fill:#F0BC5E;" d="M23,16c-3.859,0-7,3.141-7,7h4l6.901-5.812C25.746,16.411,24.397,16,23,16z"/>
	</g>
	<g>
		<path style="fill:#F0BC5E;" d="M32,63c-2.206,0-4-1.794-4-4v-0.292c0-0.618,0.146-1.237,0.424-1.79L32,49.764l3.578,7.155    C35.854,57.473,36,58.091,36,58.708V59C36,61.206,34.206,63,32,63z"/>
	</g>
	<g>
		<path style="fill:#F0BC5E;" d="M53,60c-2.206,0-4-1.794-4-4v-0.292c0-0.617,0.146-1.235,0.422-1.788L53,46.765l3.578,7.154    C56.854,54.473,57,55.091,57,55.708V56C57,58.206,55.206,60,53,60z"/>
	</g>
	<g>
		<rect x="51" y="16" width="2" height="2"/>
	</g>
	<g>
		<rect x="52" y="25" width="2" height="2"/>
	</g>
	<g>
		<rect x="38" y="22" width="2" height="2"/>
	</g>
	<g>
		<path d="M25,9c-2.206,0-4-1.794-4-4s1.794-4,4-4s4,1.794,4,4S27.206,9,25,9z M25,3c-1.103,0-2,0.897-2,2s0.897,2,2,2s2-0.897,2-2    S26.103,3,25,3z"/>
	</g>
	<g>
		<path d="M43,13c-1.654,0-3-1.346-3-3s1.346-3,3-3s3,1.346,3,3S44.654,13,43,13z M43,9c-0.552,0-1,0.449-1,1s0.448,1,1,1    s1-0.449,1-1S43.552,9,43,9z"/>
	</g>
	<g>
		<path d="M59,9c-2.206,0-4-1.794-4-4s1.794-4,4-4s4,1.794,4,4S61.206,9,59,9z M59,3c-1.103,0-2,0.897-2,2s0.897,2,2,2s2-0.897,2-2    S60.103,3,59,3z"/>
	</g>
	<g>
		<path d="M34.93,12c-0.808,0-1.588,0.236-2.258,0.684l-13.219,8.812C18.958,21.826,18.383,22,17.789,22H13v-4H1v22h12v-4h15v-2H13    V24h4.789c0.99,0,1.949-0.291,2.773-0.84l13.22-8.813C34.122,14.12,34.52,14,34.93,14c1.142,0,2.07,0.929,2.07,2.07v0.286    c0,0.694-0.345,1.338-0.922,1.723l-10.633,7.089l1.109,1.664l10.633-7.089C38.322,18.987,39,17.721,39,16.356V16.07    C39,13.826,37.174,12,34.93,12z M11,38H3V20h8V38z"/>
		<path d="M7,15c1.654,0,3-1.346,3-3S8.654,9,7,9s-3,1.346-3,3S5.346,15,7,15z M7,11c0.552,0,1,0.449,1,1s-0.448,1-1,1s-1-0.449-1-1    S6.448,11,7,11z"/>
	</g>
	<g>
		<rect x="34" y="6" width="2" height="2"/>
	</g>
	<g>
		<rect x="16" y="12" width="2" height="2"/>
	</g>
</g>
</svg>
