<?xml version="1.0" encoding="iso-8859-1"?>
<!-- Generator: Adobe Illustrator 22.1.0, SVG Export Plug-In . SVG Version: 6.00 Build 0)  -->
<svg xmlns="http://www.w3.org/2000/svg" xmlns:xlink="http://www.w3.org/1999/xlink" version="1.1" id="Layer_1_1_" x="0px" y="0px" viewBox="0 0 64 64" style="enable-background:new 0 0 64 64;" xml:space="preserve" height="32" width="32">
<g>
	<g>
		<polygon style="fill:#F0BC5E;" points="31.989,7.746 29.848,6.547 27.705,7.746 25.563,6.547 23.422,7.746 21.281,6.547     19.14,7.746 16.511,6.272 17.489,4.528 19.14,5.453 21.281,4.254 23.422,5.453 25.563,4.254 27.705,5.453 29.848,4.254     31.989,5.453 34.129,4.254 36.271,5.454 38.414,4.255 40.559,5.454 42.703,4.255 44.852,5.454 46.513,4.527 47.487,6.273     44.852,7.745 42.703,6.546 40.559,7.745 38.414,6.546 36.271,7.745 34.129,6.547   "/>
	</g>
	<g>
		<polygon style="fill:#F0BC5E;" points="16.567,12.866 13.511,11.152 14.489,9.408 16.567,10.573 19.137,9.134 21.706,10.573     24.276,9.134 26.846,10.573 29.417,9.134 31.988,10.573 34.555,9.134 37.125,10.573 39.697,9.135 42.271,10.574 44.845,9.135     47.422,10.574 49.513,9.407 50.487,11.153 47.422,12.865 44.845,11.426 42.271,12.865 39.697,11.426 37.125,12.866 34.555,11.427     31.988,12.866 29.417,11.427 26.846,12.866 24.276,11.427 21.706,12.866 19.137,11.427   "/>
	</g>
	<g>
		<path d="M57,40h4.943l-6.429-9H54v-5h-5V16h4.674L45.598,1H18.402l-8.076,15H15v10h-5v5H8.485l-6.429,9H7v21H5v2h54v-2h-2V40z     M52,31h-2v-3h2V31z M46,28h2v3h-2V28z M19.598,3h24.805l5.924,11H13.674L19.598,3z M18,31h-2v-3h2V31z M12,28h2v3h-2V28z M9,40h4    v-2H5.943l3.571-5H19v-1h1v-4h6v-2h-9V16h30v10h-9v2h6v4h1v1h9.485l3.571,5H51v2h4v21h-2v-3h-2v3h-8v-3h-2v3h-3V45H26v16h-3v-3h-2    v3h-8v-3h-2v3H9V40z M36,61h-8V47h8V61z"/>
		<path d="M32,43c2.757,0,5-2.243,5-5s-2.243-5-5-5s-5,2.243-5,5S29.243,43,32,43z M29.184,39H31v1.816    C30.153,40.514,29.486,39.847,29.184,39z M33,40.816V39h1.816C34.514,39.847,33.847,40.514,33,40.816z M34.816,37H33v-1.816    C33.847,35.486,34.514,36.153,34.816,37z M31,35.184V37h-1.816C29.486,36.153,30.153,35.486,31,35.184z"/>
		<rect x="16" y="39" width="2" height="13"/>
		<rect x="46" y="39" width="2" height="13"/>
		<rect x="30" y="53" width="2" height="2"/>
		<path d="M45,18h-6v6h6V18z M43,22h-2v-2h2V22z"/>
		<path d="M19,24h6v-6h-6V24z M21,20h2v2h-2V20z"/>
		<rect x="61" y="61" width="2" height="2"/>
		<rect x="1" y="61" width="2" height="2"/>
	</g>
	<g>
		<path style="fill:#F0BC5E;" d="M21,59h-8c-1.654,0-3-1.346-3-3c0-1.413,0.982-2.602,2.3-2.918C12.851,51.842,14.098,51,15.5,51    c0.523,0,1.032,0.117,1.5,0.344C17.468,51.117,17.977,51,18.5,51c1.402,0,2.649,0.842,3.2,2.082C23.018,53.398,24,54.587,24,56    C24,57.654,22.654,59,21,59z"/>
	</g>
	<g>
		<path style="fill:#F0BC5E;" d="M51,59h-8c-1.654,0-3-1.346-3-3c0-1.413,0.982-2.602,2.3-2.918C42.851,51.842,44.098,51,45.5,51    c0.523,0,1.032,0.117,1.5,0.344C47.468,51.117,47.977,51,48.5,51c1.402,0,2.649,0.842,3.2,2.082C53.018,53.398,54,54.587,54,56    C54,57.654,52.654,59,51,59z"/>
	</g>
	<g>
		<path style="fill:#F0BC5E;" d="M48.985,41h-0.313c-0.648,0-1.291-0.215-1.81-0.604L32,29.25L17.137,40.396    C16.619,40.785,15.977,41,15.328,41h-0.313C13.353,41,12,39.647,12,37.985c0-0.924,0.436-1.813,1.164-2.38l16.433-12.78    c1.367-1.064,3.439-1.064,4.807,0l16.434,12.781C51.564,36.172,52,37.062,52,37.985C52,39.647,50.647,41,48.985,41z"/>
	</g>
</g>
</svg>
