<?xml version="1.0" encoding="iso-8859-1"?>
<!-- Generator: Adobe Illustrator 22.1.0, SVG Export Plug-In . SVG Version: 6.00 Build 0)  -->
<svg xmlns="http://www.w3.org/2000/svg" xmlns:xlink="http://www.w3.org/1999/xlink" version="1.1" id="Layer_1_1_" x="0px" y="0px" viewBox="0 0 64 64" style="enable-background:new 0 0 64 64;" xml:space="preserve" width="512" height="512">
<g>
	<path d="M25.042,63.287l1.916-0.574L21,42.853V38h-2v-4h-2V1h-6v33H9v4H7v4.853l-5.958,19.86l1.916,0.574L8.744,44H8.78   L5.02,62.804l1.961,0.393L10.82,44h0.075l-1.89,18.9l1.99,0.199l1.91-19.1H13v19h2V44h0.095l1.91,19.1l1.99-0.199L17.105,44h0.075   l3.839,19.196l1.961-0.393L19.22,44h0.036L25.042,63.287z M13,3h2v31h-2V3z M11,36h6v2h-6V36z M9,40h10v2H9V40z"/>
	<g>
		<g>
			<path style="fill:#F0BC5E;" d="M62.388,63H29.612l0.439-1.316c2.028-6.087,5.118-11.692,9.182-16.659l1.094-1.336     C41.725,41.98,43.792,41,46,41s4.275,0.98,5.674,2.689l1.092,1.334c4.064,4.968,7.154,10.573,9.183,16.66L62.388,63z"/>
		</g>
	</g>
	<g>
		<rect x="37" y="55" width="2" height="2"/>
	</g>
	<g>
		<rect x="51" y="52" width="2" height="2"/>
	</g>
	<g>
		<rect x="46" y="57" width="2" height="2"/>
	</g>
	<g>
		<rect x="42" y="50" width="2" height="2"/>
	</g>
	<g>
		<g>
			<path style="fill:#F0BC5E;" d="M44,35h-4c-3.859,0-7-3.141-7-7v-1h4c3.859,0,7,3.141,7,7V35z"/>
		</g>
	</g>
	<g>
		<g>
			<path style="fill:#F0BC5E;" d="M24,22h-4v-1c0-3.859,3.141-7,7-7h4v1C31,18.859,27.859,22,24,22z"/>
		</g>
	</g>
	<g>
		<g>
			<path style="fill:#F0BC5E;" d="M49,12h-1V8c0-3.859,3.141-7,7-7h1v4C56,8.859,52.859,12,49,12z"/>
		</g>
	</g>
	<g>
		<g>
			<path style="fill:#F0BC5E;" d="M56,32h-4v-1c0-3.859,3.141-7,7-7h4v1C63,28.859,59.859,32,56,32z"/>
		</g>
	</g>
	<g>
		<rect x="56" y="14" width="2" height="2"/>
	</g>
	<g>
		<rect x="27" y="38" width="2" height="2"/>
	</g>
	<g>
		<rect x="34" y="5" width="2" height="2"/>
	</g>
	<g>
		<rect x="58" y="41" width="2" height="2"/>
	</g>
</g>
</svg>
