<?xml version="1.0" encoding="iso-8859-1"?>
<!-- Generator: Adobe Illustrator 22.1.0, SVG Export Plug-In . SVG Version: 6.00 Build 0)  -->
<svg xmlns="http://www.w3.org/2000/svg" xmlns:xlink="http://www.w3.org/1999/xlink" version="1.1" id="Layer_1_1_" x="0px" y="0px" viewBox="0 0 64 64" style="enable-background:new 0 0 64 64;" xml:space="preserve" width="512" height="512">
<g>
	<g>
		<path style="fill:#F0BC5E;" d="M41,56H23V35c0-4.963,4.037-9,9-9s9,4.037,9,9V56z"/>
	</g>
	<path d="M49.468,54.613l-2.306-5.072C45.728,46.384,45,43.024,45,39.557c0-2.903,0.517-5.754,1.537-8.473l1.022-2.727   C47.852,27.577,48,26.759,48,25.926C48,22.106,44.894,19,41.075,19H39v-4c0-1.103-0.897-2-2-2h-2V9h4c2.206,0,4-1.794,4-4   s-1.794-4-4-4h-0.877c-0.167,0-0.333,0.021-0.544,0.075C32.424,2.363,27.141,3.35,21.876,4.008L21,4.117V9h8v4h-2   c-1.103,0-2,0.897-2,2v4h-2.075C19.106,19,16,22.106,16,25.926c0,0.833,0.148,1.651,0.441,2.431l1.022,2.729   C18.483,33.803,19,36.653,19,39.557c0,3.468-0.728,6.827-2.163,9.984l-2.306,5.072C14.184,55.379,14,56.228,14,57.068   C14,60.339,16.661,63,19.932,63h24.137C47.339,63,50,60.339,50,57.068C50,56.228,49.816,55.379,49.468,54.613z M37,19h-2v-4h2V19z    M33,15v4h-2v-4H33z M23,5.88C28.054,5.214,33.12,4.25,38.123,3H39c1.103,0,2,0.897,2,2s-0.897,2-2,2H23V5.88z M31,9h2v4h-2V9z    M27,15h2v4h-2V15z M44.068,61H19.932C17.764,61,16,59.236,16,57.068c0-0.558,0.122-1.12,0.352-1.627l2.306-5.072   C20.212,46.95,21,43.312,21,39.557c0-3.144-0.56-6.23-1.664-9.174l-1.023-2.729C18.105,27.1,18,26.519,18,25.926   C18,23.21,20.209,21,22.925,21h18.149C43.791,21,46,23.21,46,25.926c0,0.593-0.105,1.174-0.314,1.729l-1.022,2.727   C43.56,33.326,43,36.413,43,39.557c0,3.756,0.788,7.394,2.342,10.812l2.305,5.072C47.878,55.948,48,56.511,48,57.068   C48,59.236,46.236,61,44.068,61z"/>
	<g>
		<path d="M34,44c-1.654,0-3-1.346-3-3s1.346-3,3-3s3,1.346,3,3S35.654,44,34,44z M34,40c-0.551,0-1,0.448-1,1s0.449,1,1,1    s1-0.448,1-1S34.551,40,34,40z"/>
	</g>
	<g>
		<rect x="31" y="30" width="2" height="2"/>
	</g>
	<g>
		<rect x="27" y="50" width="2" height="2"/>
	</g>
	<g>
		<rect x="27" y="36" width="2" height="2"/>
	</g>
	<g>
		<rect x="31" y="50" width="6" height="2"/>
	</g>
	<g>
		<rect x="27" y="46" width="10" height="2"/>
	</g>
</g>
</svg>
