<?xml version="1.0" encoding="iso-8859-1"?>
<!-- Generator: Adobe Illustrator 22.1.0, SVG Export Plug-In . SVG Version: 6.00 Build 0)  -->
<svg xmlns="http://www.w3.org/2000/svg" xmlns:xlink="http://www.w3.org/1999/xlink" version="1.1" id="Layer_1_1_" x="0px" y="0px" viewBox="0 0 64 64" style="enable-background:new 0 0 64 64;" xml:space="preserve" width="512" height="512">
<g>
	<path d="M51,58v2c0,0.552-0.449,1-1,1s-1-0.448-1-1v-2h-2v2c0,0.552-0.449,1-1,1s-1-0.448-1-1v-2h-2v2c0,0.552-0.449,1-1,1   s-1-0.448-1-1v-2h-2v2c0,0.552-0.449,1-1,1s-1-0.448-1-1v-2h-2v2c0,0.552-0.449,1-1,1s-1-0.448-1-1v-2h-2v2c0,0.552-0.449,1-1,1   s-1-0.448-1-1v-2h-2v2c0,0.552-0.449,1-1,1s-1-0.448-1-1v-2h-2v2c0,0.552-0.449,1-1,1s-1-0.448-1-1v-2h-2v2c0,0.552-0.449,1-1,1   s-1-0.448-1-1v-2h-2v2c0,0.552-0.449,1-1,1s-1-0.448-1-1v-2h-2v2c0,1.654,1.346,3,3,3c0.771,0,1.468-0.301,2-0.78   c0.532,0.48,1.229,0.78,2,0.78s1.468-0.301,2-0.78c0.532,0.48,1.229,0.78,2,0.78s1.468-0.301,2-0.78c0.532,0.48,1.229,0.78,2,0.78   s1.468-0.301,2-0.78c0.532,0.48,1.229,0.78,2,0.78s1.468-0.301,2-0.78c0.532,0.48,1.229,0.78,2,0.78s1.468-0.301,2-0.78   c0.532,0.48,1.229,0.78,2,0.78s1.468-0.301,2-0.78c0.532,0.48,1.229,0.78,2,0.78s1.468-0.301,2-0.78c0.532,0.48,1.229,0.78,2,0.78   s1.468-0.301,2-0.78c0.532,0.48,1.229,0.78,2,0.78c1.654,0,3-1.346,3-3v-2H51z"/>
	<path d="M56.22,50c0.48-0.532,0.78-1.229,0.78-2c0-1.654-1.346-3-3-3h-2v2h2c0.551,0,1,0.448,1,1s-0.449,1-1,1h-2v2h2   c0.551,0,1,0.448,1,1s-0.449,1-1,1h-2v2h2c0.551,0,1,0.448,1,1s-0.449,1-1,1h-2v2h2c1.654,0,3-1.346,3-3   c0-0.771-0.301-1.468-0.78-2c0.48-0.532,0.78-1.229,0.78-2S56.699,50.532,56.22,50z"/>
	<path d="M10,47h2v-2h-2c-1.654,0-3,1.346-3,3c0,0.771,0.301,1.468,0.78,2C7.301,50.532,7,51.229,7,52s0.301,1.468,0.78,2   C7.301,54.532,7,55.229,7,56c0,1.654,1.346,3,3,3h2v-2h-2c-0.551,0-1-0.448-1-1s0.449-1,1-1h2v-2h-2c-0.551,0-1-0.448-1-1   s0.449-1,1-1h2v-2h-2c-0.551,0-1-0.448-1-1S9.449,47,10,47z"/>
	<g>
		<polygon style="fill:#F0BC5E;" points="36,45 36,48 28,48 28,45 11,45 11,59 53,59 53,45   "/>
	</g>
	<g>
		<rect x="15" y="53" width="34" height="2"/>
	</g>
	<g>
		<rect x="39" y="49" width="10" height="2"/>
	</g>
	<g>
		<rect x="15" y="49" width="10" height="2"/>
	</g>
	<path d="M35,41V4c0-1.654-1.346-3-3-3s-3,1.346-3,3v37h-2v8h10v-8H35z M32,3c0.551,0,1,0.448,1,1v2h-2V4C31,3.448,31.449,3,32,3z    M31,8h2v33h-2V8z M35,47h-6v-4h6V47z"/>
</g>
</svg>
