<?xml version="1.0" encoding="iso-8859-1"?>
<!-- Generator: Adobe Illustrator 22.1.0, SVG Export Plug-In . SVG Version: 6.00 Build 0)  -->
<svg xmlns="http://www.w3.org/2000/svg" xmlns:xlink="http://www.w3.org/1999/xlink" version="1.1" id="Layer_1_1_" x="0px" y="0px" viewBox="0 0 64 64" style="enable-background:new 0 0 64 64;" xml:space="preserve" width="512" height="512">
<g>
	<g>
		<path style="fill:#F0BC5E;" d="M20,1c-1.654,0-3,1.346-3,3v38h6V4C23,2.346,21.654,1,20,1z"/>
	</g>
	<g>
		<path style="fill:#F0BC5E;" d="M46,1c-1.654,0-3,1.346-3,3v42h6V4C49,2.346,47.654,1,46,1z"/>
	</g>
	<g>
		<path d="M31,57.184V56c0-4.653-2.909-8.631-7-10.236V41h-8v4.764C11.909,47.369,9,51.347,9,56v1.184C7.839,57.598,7,58.698,7,60    c0,1.654,1.346,3,3,3h20c1.654,0,3-1.346,3-3C33,58.698,32.161,57.598,31,57.184z M18,43h4v2.191C21.35,45.071,20.684,45,20,45    s-1.35,0.071-2,0.191V43z M20,47c4.963,0,9,4.037,9,9v1H11v-1C11,51.037,15.037,47,20,47z M30,61H10c-0.552,0-1-0.448-1-1    s0.448-1,1-1h20c0.552,0,1,0.448,1,1S30.552,61,30,61z"/>
		<path d="M24.715,54.333l1.887-0.666C25.615,50.875,22.962,49,20,49v2C22.116,51,24.011,52.34,24.715,54.333z"/>
		<path d="M56.22,54c0.48-0.532,0.78-1.229,0.78-2c0-1.654-1.346-3-3-3h-1v-2c0-1.103-0.897-2-2-2H41c-1.103,0-2,0.897-2,2v2h-1    c-1.654,0-3,1.346-3,3c0,0.771,0.301,1.468,0.78,2c-0.48,0.532-0.78,1.229-0.78,2s0.301,1.468,0.78,2    c-0.48,0.532-0.78,1.229-0.78,2c0,1.654,1.346,3,3,3h16c1.654,0,3-1.346,3-3c0-0.771-0.301-1.468-0.78-2    c0.48-0.532,0.78-1.229,0.78-2S56.699,54.532,56.22,54z M37,56c0-0.552,0.448-1,1-1h16c0.552,0,1,0.448,1,1s-0.448,1-1,1H38    C37.448,57,37,56.552,37,56z M41,47h10v2H41V47z M38,51h16c0.552,0,1,0.448,1,1s-0.448,1-1,1H38c-0.552,0-1-0.448-1-1    S37.448,51,38,51z M54,61H38c-0.552,0-1-0.448-1-1s0.448-1,1-1h16c0.552,0,1,0.448,1,1S54.552,61,54,61z"/>
	</g>
</g>
</svg>
