<?xml version="1.0" encoding="iso-8859-1"?>
<!-- Generator: Adobe Illustrator 22.1.0, SVG Export Plug-In . SVG Version: 6.00 Build 0)  -->
<svg xmlns="http://www.w3.org/2000/svg" xmlns:xlink="http://www.w3.org/1999/xlink" version="1.1" id="Layer_1_1_" x="0px" y="0px" viewBox="0 0 64 64" style="enable-background:new 0 0 64 64;" xml:space="preserve" width="512" height="512">
<g>
	<g>
		<path style="fill:#F0BC5E;" d="M35,24h-6v-4h-4v-6h4v-4h6v4h4v6h-4V24z"/>
	</g>
	<g>
		<path style="fill:#F0BC5E;" d="M26.533,40.343C27.086,39.533,28.016,39,29.071,39c0.606,0,1.199,0.179,1.703,0.516l5.563,3.709    C37.399,42.138,38,40.694,38,39.146c0-0.902-0.214-1.808-0.618-2.618L32,25.764l-5.382,10.765C26.214,37.338,26,38.243,26,39.146    c0,0.349,0.03,0.695,0.091,1.031L26.533,40.343z"/>
	</g>
	<g>
		<path d="M20.533,39.581l0.838,0.548l3.276-5.025l-0.836-0.546C19.546,31.771,17,27.076,17,22c0-8.271,6.729-15,15-15    s15,6.729,15,15c0,5.076-2.546,9.771-6.811,12.558l-0.836,0.546l3.276,5.025l0.838-0.548C49.436,35.68,53,29.107,53,22    c0-11.579-9.42-21-21-21s-21,9.421-21,21C11,29.107,14.564,35.68,20.533,39.581z M32,3c10.477,0,19,8.523,19,19    c0,6.096-2.899,11.758-7.803,15.338l-1.093-1.677C46.44,32.456,49,27.421,49,22c0-9.374-7.626-17-17-17s-17,7.626-17,17    c0,5.421,2.56,10.456,6.896,13.661l-1.093,1.677C15.899,33.758,13,28.096,13,22C13,11.523,21.523,3,32,3z"/>
		<path d="M61,44h-8c-1.103,0-2,0.897-2,2v2h-4.789c-0.595,0-1.17-0.174-1.664-0.504l-13.219-8.812    C30.657,38.236,29.876,38,29.071,38C26.827,38,25,39.826,25,42.07v0.286c0,1.364,0.678,2.631,1.812,3.387l6.618,4.412    l-0.966,0.966C31.898,51.688,31.145,52,30.343,52h-8.808l-1.565-2.349c-1.339-2.009-2.22-4.234-2.617-6.617    C17.06,41.276,15.553,40,13.771,40h-0.14C11.629,40,10,41.629,10,43.632c0,0.336,0.047,0.671,0.14,0.997l0.838,2.933L7.527,44.11    C6.811,43.395,5.859,43,4.797,43c-1.015,0-1.968,0.396-2.686,1.112C1.395,44.83,1,45.784,1,46.849c0,1.01,0.393,1.958,1.104,2.67    l7.905,7.904c0.98,0.98,2.216,1.642,3.576,1.914l12.637,2.527C26.674,61.954,27.136,62,27.594,62h23.685    c0.347,0.595,0.985,1,1.722,1h8c1.103,0,2-0.897,2-2V46C63,44.897,62.104,44,61,44z M12.063,44.081    C12.021,43.934,12,43.783,12,43.632C12,42.732,12.732,42,13.631,42h0.14c0.801,0,1.478,0.573,1.609,1.363    c0.444,2.663,1.428,5.152,2.925,7.397L19.132,52h-2.474c-0.801,0-1.554-0.312-2.122-0.879l-0.646-0.646L12.063,44.081z     M26.614,59.903l-12.636-2.527c-0.971-0.194-1.854-0.667-2.554-1.367l-7.905-7.904C3.185,47.771,3,47.323,3,46.799    c0-0.48,0.187-0.933,0.526-1.272c0.646-0.645,1.873-0.715,2.586-0.002l7.009,7.011C14.067,53.479,15.322,54,16.657,54h13.686    c1.335,0,2.591-0.521,3.536-1.465l0.684-0.684l1.488,4.465l1.897-0.633l-2.108-6.325l-7.918-5.279    C27.345,43.694,27,43.051,27,42.356V42.07c0-1.142,0.929-2.07,2.07-2.07c0.41,0,0.807,0.12,1.148,0.348l13.218,8.812    C44.261,49.709,45.22,50,46.211,50H51v10H27.594C27.266,60,26.936,59.968,26.614,59.903z M59,61v-4h-2v4h-4V46h4v9h2v-9h2    l0.001,15H59z"/>
	</g>
</g>
</svg>
