<?xml version="1.0" encoding="iso-8859-1"?>
<!-- Generator: Adobe Illustrator 22.1.0, SVG Export Plug-In . SVG Version: 6.00 Build 0)  -->
<svg xmlns="http://www.w3.org/2000/svg" xmlns:xlink="http://www.w3.org/1999/xlink" version="1.1" id="Layer_1_1_" x="0px" y="0px" viewBox="0 0 64 64" style="enable-background:new 0 0 64 64;" xml:space="preserve" width="512" height="512">
<g>
	<g>
		<path d="M60.009,49.94l-1.666-1.105C60.081,46.213,61,43.158,61,40c0-6.481-3.865-12.28-9.848-14.774l0.77-1.846    C58.651,26.186,63,32.709,63,40C63,43.553,61.966,46.99,60.009,49.94z"/>
	</g>
	<g>
		<path d="M32,58H19C9.075,58,1,49.925,1,40s8.075-18,18-18v2c-8.822,0-16,7.178-16,16s7.178,16,16,16h13V58z"/>
	</g>
	<g>
		<path d="M53.73,48.226l-1.455-1.373C54.032,44.99,55,42.556,55,40c0-5.514-4.486-10-10-10h-6.688v-2H45c6.617,0,12,5.383,12,12    C57,43.068,55.839,45.989,53.73,48.226z"/>
	</g>
	<g>
		<path d="M38.007,52H19c-6.617,0-12-5.383-12-12s5.383-12,12-12h7v2h-7c-5.514,0-10,4.486-10,10s4.486,10,10,10h19.007V52z"/>
	</g>
	<g>
		<path d="M49.113,46.859l-1.031-1.713C49.882,44.063,51,42.092,51,40c0-3.309-2.691-6-6-6H32v-2h13c4.411,0,8,3.589,8,8    C53,42.789,51.511,45.417,49.113,46.859z"/>
	</g>
	<g>
		<path d="M45,48H19c-4.411,0-8-3.589-8-8s3.589-8,8-8h7v2h-7c-3.309,0-6,2.691-6,6s2.691,6,6,6h26c0.29,0,0.581-0.021,0.863-0.062    l0.287,1.979C45.773,47.973,45.387,48,45,48z"/>
	</g>
	<g>
		<path style="fill:#F0BC5E;" d="M55,47c-0.484,0-0.96,0.048-1.427,0.132C52.43,45.778,50.787,45,49,45    c-2.279,0-4.301,1.271-5.313,3.254C43.135,48.085,42.57,48,42,48c-2.97,0-5.436,2.171-5.911,5.009C36.059,53.008,36.03,53,36,53    c-2.757,0-5,2.243-5,5s2.243,5,5,5h19c4.411,0,8-3.589,8-8S59.411,47,55,47z"/>
	</g>
	<g>
		<path style="fill:#F0BC5E;" d="M29,40c-2.206,0-4-1.794-4-4v-9.073c-2.753,0.406-5.509-0.921-6.947-3.241    c-2.57,0.806-5.48-0.016-7.273-2.021c-1.326-1.483-1.958-3.478-1.734-5.47c0.349-3.105,2.845-5.679,5.935-6.121    c0.756-0.106,1.508-0.095,2.246,0.039C18.072,6.557,21.232,4,25,4c2.684,0,5.135,1.321,6.613,3.508C32.366,7.174,33.176,7,34,7    c2.413,0,4.538,1.438,5.479,3.569C40.267,10.194,41.12,10,42,10c2.637,0,4.902,1.717,5.685,4.149    c0.478-0.11,0.954-0.161,1.456-0.148h0.001c1.578,0.038,3.065,0.711,4.188,1.895c1.121,1.183,1.714,2.702,1.669,4.28    C54.903,23.441,52.269,26,49,26c-1.101,0-2.171-0.308-3.105-0.88c-1.067,1.333-2.764,2.093-4.545,1.832    C40.217,29.407,37.77,31,35,31c-0.679,0-1.353-0.101-2-0.295V36C33,38.206,31.206,40,29,40z"/>
	</g>
	<g>
		<rect x="55" y="52" width="2" height="2"/>
	</g>
	<g>
		<rect x="52" y="57" width="2" height="2"/>
	</g>
	<g>
		<rect x="43" y="53" width="2" height="2"/>
	</g>
	<g>
		<rect x="35" y="57" width="2" height="2"/>
	</g>
	<g>
		<path d="M34,25c-1.654,0-3-1.346-3-3s1.346-3,3-3s3,1.346,3,3S35.654,25,34,25z M34,21c-0.552,0-1,0.448-1,1s0.448,1,1,1    s1-0.448,1-1S34.552,21,34,21z"/>
	</g>
	<g>
		<rect x="14" y="15" width="2" height="2"/>
	</g>
	<g>
		<rect x="47" y="19" width="2" height="2"/>
	</g>
	<g>
		<rect x="41" y="15" width="2" height="2"/>
	</g>
	<g>
		<rect x="24" y="11" width="2" height="2"/>
	</g>
	<g>
		<rect x="22" y="20" width="2" height="2"/>
	</g>
	<g>
		<path d="M59,14c-2.206,0-4-1.794-4-4s1.794-4,4-4s4,1.794,4,4S61.206,14,59,14z M59,8c-1.103,0-2,0.897-2,2s0.897,2,2,2    s2-0.897,2-2S60.103,8,59,8z"/>
	</g>
	<g>
		<path d="M50,7c-1.654,0-3-1.346-3-3s1.346-3,3-3s3,1.346,3,3S51.654,7,50,7z M50,3c-0.552,0-1,0.448-1,1s0.448,1,1,1s1-0.448,1-1    S50.552,3,50,3z"/>
	</g>
	<g>
		<path d="M4,17c-1.654,0-3-1.346-3-3s1.346-3,3-3s3,1.346,3,3S5.654,17,4,17z M4,13c-0.552,0-1,0.448-1,1s0.448,1,1,1s1-0.448,1-1    S4.552,13,4,13z"/>
	</g>
	<g>
		<path d="M13,9c-2.206,0-4-1.794-4-4s1.794-4,4-4s4,1.794,4,4S15.206,9,13,9z M13,3c-1.103,0-2,0.897-2,2s0.897,2,2,2s2-0.897,2-2    S14.103,3,13,3z"/>
	</g>
</g>
</svg>
