<?xml version="1.0" encoding="iso-8859-1"?>
<!-- Generator: Adobe Illustrator 22.1.0, SVG Export Plug-In . SVG Version: 6.00 Build 0)  -->
<svg xmlns="http://www.w3.org/2000/svg" xmlns:xlink="http://www.w3.org/1999/xlink" version="1.1" id="Layer_1_1_" x="0px" y="0px" viewBox="0 0 64 64" style="enable-background:new 0 0 64 64;" xml:space="preserve" width="512" height="512">
<g>
	<g>
		<path d="M49.49,37.005c0.011-2.34,0.342-4.713,0.982-7.056C50.822,28.666,51,27.338,51,26c0-8.972-6.832-15-17-15h-5v0.007    c-1.459-0.001-2.895,0.199-4.286,0.615l0.572,1.916c1.673-0.498,3.425-0.65,5.198-0.456c5.754,0.636,10.536,5.243,11.372,10.955    c0.146,0.999,0.173,1.99,0.098,2.968C39.219,27.03,37,29.259,37,32c0,2.193,1.431,4.103,3.501,4.756    c-0.012,2.591,0.331,5.223,1.042,7.823C41.847,45.688,42,46.84,42,48c0,3.691-1.578,7.223-4.33,9.688    c-2.789,2.498-6.399,3.648-10.154,3.23c-5.159-0.57-9.528-4.337-10.98-9.227C17.981,51.088,19,49.662,19,48    c0-1.664-1.022-3.092-2.471-3.694c1.321-4.723,1.299-9.866-0.072-14.885C16.153,28.312,16,27.16,16,26    c0-0.618,0.044-1.244,0.132-1.859l-1.98-0.281C14.051,24.567,14,25.288,14,26c0,1.338,0.178,2.666,0.527,3.949    c1.288,4.713,1.304,9.533,0.045,13.941c-0.587,2.058-0.724,4.198-0.407,6.361c0.965,6.598,6.487,11.919,13.131,12.654    c0.58,0.063,1.156,0.096,1.729,0.096c0.015,0,0.029-0.002,0.043-0.002H34c10.168,0,17-6.028,17-15    c0-1.338-0.178-2.666-0.527-3.949C49.832,41.708,49.501,39.335,49.49,37.005z M41.504,29.561    c-0.471,1.649-0.765,3.352-0.907,5.082C39.634,34.132,39,33.13,39,32c0-1.525,1.148-2.774,2.623-2.962    C41.581,29.212,41.553,29.388,41.504,29.561z M16.115,49.659c-0.138-1.118-0.132-2.225,0.007-3.313C16.651,46.706,17,47.313,17,48    C17,48.69,16.648,49.3,16.115,49.659z M48.543,44.578C48.847,45.688,49,46.84,49,48c0,6.927-4.791,11.818-12.178,12.806    c0.765-0.471,1.495-1.014,2.182-1.629C42.179,56.333,44,52.26,44,48c0-1.338-0.178-2.666-0.527-3.949    c-1.288-4.713-1.304-9.533-0.045-13.941c0.587-2.058,0.724-4.198,0.407-6.361c-0.649-4.435-3.362-8.286-7.085-10.562    C44.177,14.152,49,19.051,49,26c0,1.16-0.153,2.312-0.457,3.422c-0.687,2.511-1.041,5.059-1.053,7.583    C47.502,39.52,47.856,42.067,48.543,44.578z"/>
		<path d="M28,38v-2c-2.206,0-4,1.794-4,4s1.794,4,4,4s4-1.794,4-4h-2c0,1.103-0.897,2-2,2s-2-0.897-2-2S26.897,38,28,38z"/>
		<path d="M29,55c-2.206,0-4,1.794-4,4h2c0-1.103,0.897-2,2-2s2,0.897,2,2h2C33,56.794,31.206,55,29,55z"/>
		<path d="M31,17c-1.654,0-3,1.346-3,3s1.346,3,3,3s3-1.346,3-3S32.654,17,31,17z M31,21c-0.552,0-1-0.448-1-1s0.448-1,1-1    s1,0.448,1,1S31.552,21,31,21z"/>
		<rect x="32" y="34" width="2" height="2"/>
		<rect x="36" y="47" width="2" height="2"/>
		<rect x="37" y="23" width="2" height="2"/>
	</g>
	<g>
		<g>
			<path style="fill:#F0BC5E;" d="M18,26c-2.58,0-4.822-1.639-5.651-4.011C8.895,22.209,6.001,19.425,6,16     c0-1.429,0.498-2.772,1.416-3.853C7.14,11.45,7,10.73,7,10c0-3.309,2.691-6,6-6c2.279,0,4.301,1.271,5.312,3.254     C18.865,7.085,19.43,7,20,7c3.309,0,6,2.691,6,6c0,1.914-0.912,3.679-2.433,4.8C23.853,18.506,24,19.252,24,20     C24,23.309,21.309,26,18,26z"/>
		</g>
	</g>
	<g>
		<path d="M29,7c-1.654,0-3-1.346-3-3s1.346-3,3-3s3,1.346,3,3S30.654,7,29,7z M29,3c-0.552,0-1,0.448-1,1s0.448,1,1,1s1-0.448,1-1    S29.552,3,29,3z"/>
	</g>
	<g>
		<path d="M58,21c-2.757,0-5-2.243-5-5s2.243-5,5-5s5,2.243,5,5S60.757,21,58,21z M58,13c-1.654,0-3,1.346-3,3s1.346,3,3,3    s3-1.346,3-3S59.654,13,58,13z"/>
	</g>
	<g>
		<path d="M5,38c-2.206,0-4-1.794-4-4s1.794-4,4-4s4,1.794,4,4S7.206,38,5,38z M5,32c-1.103,0-2,0.897-2,2s0.897,2,2,2s2-0.897,2-2    S6.103,32,5,32z"/>
	</g>
	<g>
		<rect x="12" y="8" width="2" height="2"/>
	</g>
	<g>
		<rect x="17" y="20" width="2" height="2"/>
	</g>
	<g>
		<rect x="19" y="12" width="2" height="2"/>
	</g>
	<g>
		<rect x="11" y="15" width="2" height="2"/>
	</g>
	<g>
		<path d="M58,59c-1.654,0-3-1.346-3-3s1.346-3,3-3s3,1.346,3,3S59.654,59,58,59z M58,55c-0.552,0-1,0.448-1,1s0.448,1,1,1    s1-0.448,1-1S58.552,55,58,55z"/>
	</g>
	<g>
		<path d="M10,59c-1.654,0-3-1.346-3-3s1.346-3,3-3s3,1.346,3,3S11.654,59,10,59z M10,55c-0.552,0-1,0.448-1,1s0.448,1,1,1    s1-0.448,1-1S10.552,55,10,55z"/>
	</g>
	<g>
		<rect x="21" y="28" width="2" height="2"/>
	</g>
	<g>
		<rect x="26" y="49" width="2" height="2"/>
	</g>
</g>
</svg>
