<?xml version="1.0" encoding="iso-8859-1"?>
<!-- Generator: Adobe Illustrator 22.1.0, SVG Export Plug-In . SVG Version: 6.00 Build 0)  -->
<svg xmlns="http://www.w3.org/2000/svg" xmlns:xlink="http://www.w3.org/1999/xlink" version="1.1" id="Layer_1_1_" x="0px" y="0px" viewBox="0 0 64 64" style="enable-background:new 0 0 64 64;" xml:space="preserve" width="512" height="512">
<g>
	<g>
		<g>
			<path style="fill:#F0BC5E;" d="M42,57H27.146c-0.879,0-1.646-0.564-1.909-1.403l-3.144-10.062C22.032,45.341,22,45.133,22,44.921     c0-0.721,0.364-1.378,0.975-1.759l2.889-1.806c2.169-1.354,3.593-3.436,4.011-5.862C30.122,34.05,31.331,33,32.75,33H41     c1.654,0,3,1.346,3,3v19C44,56.103,43.103,57,42,57z"/>
		</g>
	</g>
	<g>
		<path d="M46.883,29.387C45.078,28.183,44,26.169,44,24v-9h1c1.103,0,2-0.897,2-2v-1.838c0-0.216-0.035-0.429-0.103-0.632    l-2.721-8.163C43.904,1.549,43.141,1,42.279,1H12v7.858l5.862,0.902c-0.099,0.832-0.25,1.667-0.46,2.51    c-0.854,3.415-2.621,6.535-5.109,9.023L12,21.586V25h2.312c2.622,0,5.127-1.252,6.701-3.351c0.593-0.791,1.038-1.671,1.322-2.619    l2.461-8.204l0.541,0.083L27,14.236v5.35l-2.905,2.905C22.744,23.842,22,25.638,22,27.548c0,1.105,0.261,2.211,0.755,3.198    l0.95,1.9C23.898,33.032,24,33.464,24,33.896c0,0.97-0.491,1.857-1.314,2.371l-2.891,1.807C17.418,39.559,16,42.119,16,44.92    c0,0.818,0.124,1.628,0.367,2.408l4.021,12.864C20.912,61.872,22.446,63,24.206,63H46c2.206,0,4-1.794,4-4V35.211    C50,32.865,48.834,30.688,46.883,29.387z M42,19h-3v-4h3V19z M29,15h3v4h-3V15z M34,15h3v4h-3V15z M14,7.142V3h4v4.486    c0,0.09-0.007,0.18-0.008,0.27L14,7.142z M20.419,18.456c-0.216,0.722-0.555,1.392-1.006,1.994C18.215,22.046,16.308,23,14.312,23    H14v-0.592c2.591-2.694,4.435-6.025,5.36-9.727c0.215-0.861,0.376-1.736,0.483-2.617l2.957,0.455L20.419,18.456z M19.982,8.062    C19.987,7.87,20,7.678,20,7.486V3h22.279L45,11.162V13H28.618l-1.955-3.91L19.982,8.062z M48,59c0,1.103-0.897,2-2,2H24.206    c-0.879,0-1.646-0.564-1.909-1.403l-4.021-12.865C18.093,46.145,18,45.536,18,44.92c0-2.108,1.067-4.033,2.855-5.15l2.891-1.807    C25.157,37.081,26,35.561,26,33.896c0-0.741-0.175-1.482-0.506-2.145l-0.95-1.9C24.188,29.14,24,28.344,24,27.548    c0-1.376,0.536-2.669,1.509-3.643L28.414,21H42v3c0,2.84,1.411,5.476,3.773,7.051C47.167,31.98,48,33.535,48,35.211V59z"/>
		<path d="M28.123,28.067C28.042,27.905,28,27.725,28,27.548c0-0.303,0.123-0.6,0.337-0.814l3.198-3.198l-1.414-1.414l-3.198,3.198    C26.336,25.906,26,26.718,26,27.548c0,0.484,0.115,0.972,0.333,1.412l0.949,1.896l1.788-0.896L28.123,28.067z"/>
		<rect x="28" y="46" width="2" height="2"/>
		<rect x="33" y="46" width="2" height="2"/>
		<rect x="38" y="46" width="2" height="2"/>
		<rect x="28" y="50" width="12" height="2"/>
		<rect x="31" y="42" width="9" height="2"/>
		<rect x="33" y="38" width="7" height="2"/>
	</g>
</g>
</svg>
