<?xml version="1.0" encoding="iso-8859-1"?>
<!-- Generator: Adobe Illustrator 22.1.0, SVG Export Plug-In . SVG Version: 6.00 Build 0)  -->
<svg xmlns="http://www.w3.org/2000/svg" xmlns:xlink="http://www.w3.org/1999/xlink" version="1.1" id="Layer_1_1_" x="0px" y="0px" viewBox="0 0 64 64" style="enable-background:new 0 0 64 64;" xml:space="preserve" width="512" height="512">
<g>
	<g>
		<g>
			<rect x="15" y="34" style="fill:#F0BC5E;" width="2" height="6"/>
		</g>
	</g>
	<g>
		<g>
			<rect x="19" y="34" style="fill:#F0BC5E;" width="2" height="6"/>
		</g>
	</g>
	<g>
		<g>
			<path style="fill:#F0BC5E;" d="M63,63H35v-1c0-5.445,1.693-10.652,4.896-15.058l0.355-0.487C42.279,43.666,45.551,42,49,42     s6.721,1.666,8.749,4.456l0.354,0.485C61.307,51.348,63,56.555,63,62V63z"/>
		</g>
	</g>
	<g>
		<path d="M23.528,41.422l-0.288-0.865C23.699,40.19,24,39.632,24,39v-4c0-1.103-0.897-2-2-2h-1V4c0-1.654-1.346-3-3-3s-3,1.346-3,3    v29h-1c-1.103,0-2,0.897-2,2v4c0,0.632,0.301,1.19,0.76,1.557l-0.288,0.865c-2.125,6.374-4.345,11.959-10.026,15.746L1.197,58    l1.248,0.832C2.701,59.002,8.803,63,18,63s15.299-3.998,15.555-4.168L34.803,58l-1.248-0.832    C27.874,53.381,25.653,47.796,23.528,41.422z M14.683,44.159L14.926,41h0.071c-0.013,6.558-0.664,13.141-1.935,19.575    c-0.886-0.152-1.723-0.334-2.505-0.538C12.864,55.018,14.258,49.687,14.683,44.159z M16.998,41H17v19.98    c-0.671-0.023-1.321-0.071-1.954-0.135C16.328,54.321,16.985,47.648,16.998,41z M19,41.714c0,6.221,0.564,12.479,1.677,18.602    l0.099,0.547c-0.577,0.055-1.168,0.097-1.777,0.118V41.714z M22.645,59.958C21.553,53.953,21,47.814,21,41.714V41h0.074    l0.243,3.159c0.425,5.528,1.819,10.859,4.125,15.878c-0.833,0.217-1.729,0.41-2.68,0.567L22.645,59.958z M17,4    c0-0.552,0.449-1,1-1s1,0.448,1,1v29h-2V4z M14,35h8l0.001,4H14V35z M12.223,47.817c-0.659,4.029-1.867,7.927-3.604,11.644    c-1.616-0.54-2.899-1.122-3.767-1.565C8.39,55.139,10.566,51.641,12.223,47.817z M27.381,59.461    c-1.737-3.717-2.945-7.616-3.604-11.644c1.657,3.823,3.832,7.322,7.371,10.079C30.281,58.339,28.997,58.921,27.381,59.461z"/>
		<rect x="51" y="46" width="2" height="2"/>
		<rect x="40" y="53" width="2" height="2"/>
		<rect x="55" y="54" width="2" height="2"/>
		<rect x="47" y="57" width="2" height="2"/>
		<path d="M44,29v-2c-1.103,0-2-0.897-2-2s0.897-2,2-2c0.366,0,0.718,0.103,1.046,0.306L46,23.896l0.477-1.016    C47.299,21.131,49.075,20,51,20c2.757,0,5,2.243,5,5h2c0-3.859-3.14-7-7-7c-2.367,0-4.572,1.219-5.854,3.173    C44.774,21.059,44.388,21,44,21c-2.206,0-4,1.794-4,4S41.794,29,44,29z"/>
		<rect x="52" y="23" width="2" height="2"/>
		<rect x="46" y="26" width="2" height="2"/>
		<path d="M41,31c-0.817,0-1.624,0.21-2.348,0.602C37.718,30.585,36.412,30,35,30c-2.757,0-5,2.243-5,5c0,0.042,0,0.084,0.002,0.126    C28.278,35.57,27,37.139,27,39c0,2.206,1.794,4,4,4v-2c-1.103,0-2-0.897-2-2s0.897-2,1.938-2.003l1.52,0.07l-0.345-1.308    C32.036,35.467,32,35.226,32,35c0-1.654,1.346-3,3-3c1.056,0,2.016,0.552,2.566,1.475l0.604,1.016l0.901-0.765    C39.462,33.395,40.113,33,41,33c1.654,0,3,1.346,3,3s-1.346,3-3,3v2c2.757,0,5-2.243,5-5S43.757,31,41,31z"/>
		<rect x="40" y="35" width="2" height="2"/>
		<rect x="34" y="34" width="2" height="2"/>
		<path d="M59,34c-0.177,0-0.353,0.012-0.528,0.036C57.775,32.802,56.458,32,55,32c-2.206,0-4,1.794-4,4h2c0-1.103,0.897-2,2-2    c0.894,0,1.683,0.609,1.919,1.48l0.293,1.086l1.044-0.419C59.587,35.617,61,36.648,61,38c0,1.103-0.897,2-2,2v2    c2.206,0,4-1.794,4-4S61.206,34,59,34z"/>
	</g>
</g>
</svg>
