<?xml version="1.0" encoding="iso-8859-1"?>
<!-- Generator: Adobe Illustrator 22.1.0, SVG Export Plug-In . SVG Version: 6.00 Build 0)  -->
<svg xmlns="http://www.w3.org/2000/svg" xmlns:xlink="http://www.w3.org/1999/xlink" version="1.1" id="Layer_1_1_" x="0px" y="0px" viewBox="0 0 64 64" style="enable-background:new 0 0 64 64;" xml:space="preserve" width="512" height="512">
<g>
	<g>
		<rect x="11" y="15" style="fill:#F0BC5E;" width="12" height="2"/>
	</g>
	<g>
		<g>
			<path style="fill:#F0BC5E;" d="M48,63c-2.757,0-5-2.243-5-5c0-0.827,0.183-1.601,0.527-2.291L48,46.765l4.473,8.943     C52.817,56.399,53,57.173,53,57.944C53,60.757,50.757,63,48,63z"/>
		</g>
	</g>
	<g>
		<path d="M53,40V29c0-2.757-2.243-5-5-5H26v-5h-2v-4.346l14.324-6.268C39.343,7.941,40,6.937,40,5.826v-2.03    c0-1.751-1.672-3.125-3.424-2.725L12.325,6.668C10.956,6.983,10,8.186,10,9.591V19H8v42H5v2h24v-2h-3V34h17v6    c-1.103,0-2,0.897-2,2v2c0,1.103,0.897,2,2,2h10c1.103,0,2-0.897,2-2v-2C55,40.897,54.103,40,53,40z M12,9.591    c0-0.469,0.318-0.869,0.774-0.974l24.249-5.597C37.533,2.907,38,3.298,38,3.796v2.03c0,0.315-0.188,0.602-0.477,0.729L22,13.346    V19H12V9.591z M43,32H24v29H10V21h14v5h24c1.654,0,3,1.346,3,3v11h-6v-6C45,32.897,44.103,32,43,32z M43,44v-2h10l0.002,2H43z"/>
		<rect x="12" y="23" width="2" height="2"/>
		<rect x="12" y="27" width="2" height="32"/>
		<rect x="1" y="61" width="2" height="2"/>
		<rect x="31" y="61" width="2" height="2"/>
	</g>
</g>
</svg>
