<?xml version="1.0" encoding="iso-8859-1"?>
<!-- Generator: Adobe Illustrator 22.1.0, SVG Export Plug-In . SVG Version: 6.00 Build 0)  -->
<svg xmlns="http://www.w3.org/2000/svg" xmlns:xlink="http://www.w3.org/1999/xlink" version="1.1" id="Layer_1_1_" x="0px" y="0px" viewBox="0 0 64 64" style="enable-background:new 0 0 64 64;" xml:space="preserve" width="512" height="512">
<g>
	<g>
		<polygon style="fill:#F0BC5E;" points="2,52 26,52 29,49 44,49 47,52 62,52 62,56 2,56   "/>
	</g>
	<g>
		<path style="fill:#F0BC5E;" d="M51.703,10.688l-7.281-1.618C44.213,9.023,44,9,43.788,9h-1.754c-0.982,0-1.895,0.488-2.44,1.306    l-0.911,1.367c-0.292,0.438-1.032,0.392-1.268-0.079l-0.986-1.973c-0.5-1-1.505-1.621-2.623-1.621h-4.839    c-0.919,0-1.796,0.438-2.347,1.174l-1.84,2.453C24.604,11.86,24.325,12,24.033,12h-0.999c-0.312,0-0.603-0.155-0.776-0.414    l-0.852-1.28C20.86,9.488,19.948,9,18.966,9h-6.033C11.315,9,10,10.315,10,11.933v1.566c0,0.496,0.128,0.988,0.369,1.424    l9.757,17.562h23.748l9.783-17.608C53.882,14.471,54,14.013,54,13.551C54,12.165,53.056,10.988,51.703,10.688z"/>
	</g>
	<g>
		<path d="M40.539,31l5.375-12.094l-1.828-0.812L38.35,31h-1.99l3.344-10.702l-1.908-0.596L34.265,31H33v-8h-2v8h-1.265    l-3.531-11.298l-1.908,0.596L27.64,31h-1.99l-3.736-8.406l-1.828,0.812L23.461,31H1v26h62V31H40.539z M3,33h40v22H3V33z M61,55H45    V33h16V55z"/>
		<rect x="5" y="35" width="13" height="2"/>
		<rect x="20" y="35" width="2" height="2"/>
		<rect x="5" y="39" width="17" height="2"/>
		<rect x="23.313" y="15.952" transform="matrix(0.9545 -0.2983 0.2983 0.9545 -3.964 8.0257)" width="1.999" height="2.095"/>
		<rect x="45.269" y="14.125" transform="matrix(0.4061 -0.9138 0.9138 0.4061 13.7932 51.4744)" width="2.462" height="2.001"/>
		<rect x="31" y="13" width="2" height="7"/>
	</g>
</g>
</svg>
