<?xml version="1.0" encoding="iso-8859-1"?>
<!-- Generator: Adobe Illustrator 22.1.0, SVG Export Plug-In . SVG Version: 6.00 Build 0)  -->
<svg xmlns="http://www.w3.org/2000/svg" xmlns:xlink="http://www.w3.org/1999/xlink" version="1.1" id="Layer_1_1_" x="0px" y="0px" viewBox="0 0 64 64" style="enable-background:new 0 0 64 64;" xml:space="preserve" width="512" height="512">
<g>
	<g>
		<path style="fill:#F0BC5E;" d="M58,47h-2c0-2.757-2.243-5-5-5H13c-2.757,0-5,2.243-5,5H6v-8c0-3.859,3.141-7,7-7h38    c3.859,0,7,3.141,7,7V47z"/>
	</g>
	<g>
		<path style="fill:#F0BC5E;" d="M58,23h-2c0-2.757-2.243-5-5-5H13c-2.757,0-5,2.243-5,5H6v-8c0-3.859,3.141-7,7-7h38    c3.859,0,7,3.141,7,7V23z"/>
	</g>
	<path d="M51,1H13C9.141,1,6,4.141,6,8v48c0,3.859,3.141,7,7,7h38c3.859,0,7-3.141,7-7V8C58,4.141,54.859,1,51,1z M51,14   c2.757,0,5,2.243,5,5v19.111C54.728,36.81,52.958,36,51,36h-5v2h5c2.757,0,5,2.243,5,5v8.105C54.729,49.807,52.957,49,51,49H20   c-2.206,0-4,1.794-4,4s1.794,4,4,4h32v-2H20c-1.103,0-2-0.897-2-2s0.897-2,2-2h31c2.757,0,5,2.243,5,5s-2.243,5-5,5H13   c-2.757,0-5-2.243-5-5V43c0-2.757,2.243-5,5-5h31v-2H13c-1.958,0-3.728,0.81-5,2.111V19c0-2.757,2.243-5,5-5h6v-2h-6   c-1.958,0-3.728,0.81-5,2.111V8c0-2.757,2.243-5,5-5h38c2.757,0,5,2.243,5,5v6.111C54.728,12.81,52.958,12,51,12H21v2H51z"/>
</g>
</svg>
