<?xml version="1.0" encoding="iso-8859-1"?>
<!-- Generator: Adobe Illustrator 22.1.0, SVG Export Plug-In . SVG Version: 6.00 Build 0)  -->
<svg xmlns="http://www.w3.org/2000/svg" xmlns:xlink="http://www.w3.org/1999/xlink" version="1.1" id="Layer_1_1_" x="0px" y="0px" viewBox="0 0 64 64" style="enable-background:new 0 0 64 64;" xml:space="preserve" width="32" height="32">
<g>
	<g>
		<rect x="40" y="10" style="fill:#F0BC5E;" width="15" height="10"/>
	</g>
	<g>
		<g>
			<path style="fill:#F0BC5E;" d="M32,49c-7.168,0-13-5.832-13-13s5.832-13,13-13s13,5.832,13,13S39.168,49,32,49z"/>
		</g>
	</g>
	<g>
		<path d="M56,55.838V10l-2.219-9H10.219L8,9.877v45.961l-1,3V63h50v-4.162L56,55.838z M10,51V21h44v30h-4v2h4v2H10v-2h38v-2H10z     M21,11v8H10v-8H21z M54,19H23v-8h31V19z M52.219,3l1.5,6H10.281l1.5-6H52.219z M55,61H9v-1.838L9.721,57h44.559L55,59.162V61z"/>
		<path d="M32,27c-4.962,0-9,4.037-9,9s4.038,9,9,9c3.001,0,5.797-1.526,7.461-4H45v-2h-5v-6h5v-2h-5.539    C37.797,28.526,35.001,27,32,27z M32,43c-3.86,0-7-3.141-7-7s3.14-7,7-7c2.453,0,4.738,1.305,6,3.406v7.189    C36.738,41.695,34.453,43,32,43z"/>
		<path d="M27,16h2.184c0.414,1.161,1.514,2,2.816,2s2.402-0.839,2.816-2H37v-2h-2.184c-0.414-1.161-1.514-2-2.816-2    s-2.402,0.839-2.816,2H27V16z M32,14c0.551,0,1,0.448,1,1s-0.449,1-1,1s-1-0.448-1-1S31.449,14,32,14z"/>
		<rect x="42" y="14" width="2" height="2"/>
		<rect x="46" y="14" width="2" height="2"/>
		<rect x="50" y="14" width="2" height="2"/>
		<rect x="14" y="5" width="12" height="2"/>
		<rect x="28" y="5" width="2" height="2"/>
		<rect x="12" y="14" width="7" height="2"/>
	</g>
</g>
</svg>
