<svg width="38" height="37" viewBox="0 0 38 37" fill="none" xmlns="http://www.w3.org/2000/svg">
<g filter="url(#filter0_d)">
<path d="M30.8659 14.7221C30.8659 22.1409 24.8518 28.155 17.4331 28.155C10.0141 28.155 4 22.1409 4 14.7221C4 7.30316 10.0141 1.28906 17.4331 1.28906C24.8518 1.28906 30.8659 7.30316 30.8659 14.7221Z" fill="#FEB836"/>
<path d="M17.4331 1.28906C17.0209 1.28906 16.6116 1.30783 16.2088 1.34422C23.0544 1.96198 28.4206 7.71561 28.4206 14.7221C28.4206 21.7287 23.0538 27.4821 16.2081 28.1001C16.611 28.1362 17.0209 28.155 17.4331 28.155C24.8519 28.155 30.866 22.1409 30.866 14.7219C30.866 7.30316 24.8519 1.28906 17.4331 1.28906Z" fill="#D1972C"/>
<path d="M26.8895 14.7221C26.8895 19.9448 22.6557 24.1786 17.433 24.1786C12.2104 24.1786 7.97656 19.9448 7.97656 14.7221C7.97656 9.49951 12.2104 5.26566 17.433 5.26566C22.6557 5.26566 26.8895 9.49951 26.8895 14.7221Z" fill="#FFDC45"/>
<path d="M17.4331 5.26566C17.0186 5.26566 16.6091 5.29243 16.2088 5.34416C20.8539 5.94383 24.4442 9.91379 24.4442 14.7221C24.4442 19.5305 20.8434 23.4991 16.1982 24.0987C16.5986 24.1505 17.0186 24.1786 17.4331 24.1786C22.6557 24.1786 26.8895 19.9448 26.8895 14.7221C26.8895 9.49951 22.6557 5.26566 17.4331 5.26566Z" fill="#D6B93A"/>
<path d="M34 23.448C34 26.3734 31.6286 28.7448 28.7032 28.7448C25.7779 28.7448 23.4064 26.3734 23.4064 23.448C23.4064 20.5227 25.7779 18.1512 28.7032 18.1512C31.6286 18.1512 34 20.5227 34 23.448Z" fill="#17ACE8"/>
<path d="M31.8018 19.1517C32.4315 20.023 32.8027 21.0938 32.8027 22.251C32.8027 25.1763 30.4313 27.5478 27.5061 27.5478C26.3489 27.5478 25.278 27.1763 24.4069 26.5466C25.3689 27.878 26.9351 28.7448 28.7032 28.7448C31.6285 28.7448 34 26.3734 34 23.448C34 21.6799 33.1332 20.1139 31.8018 19.1517Z" fill="#1391C4"/>
<path d="M31.4425 22.9955H29.1559V20.7088C29.1559 20.4588 28.9532 20.256 28.7032 20.256C28.453 20.256 28.2505 20.4588 28.2505 20.7088V22.9955H25.9637C25.7138 22.9955 25.5112 23.1981 25.5112 23.448C25.5112 23.6982 25.7138 23.9008 25.9637 23.9008H28.2505V26.1875C28.2505 26.4375 28.453 26.6402 28.7032 26.6402C28.9532 26.6402 29.1559 26.4375 29.1559 26.1875V23.9008H31.4425C31.6926 23.9008 31.8952 23.6982 31.8952 23.448C31.8954 23.1981 31.6926 22.9955 31.4425 22.9955Z" fill="#E1E3FA"/>
</g>
<defs>
<filter id="filter0_d" x="0" y="0" width="38" height="38" filterUnits="userSpaceOnUse" color-interpolation-filters="sRGB">
<feFlood flood-opacity="0" result="BackgroundImageFix"/>
<feColorMatrix in="SourceAlpha" type="matrix" values="0 0 0 0 0 0 0 0 0 0 0 0 0 0 0 0 0 0 127 0" result="hardAlpha"/>
<feOffset dy="4"/>
<feGaussianBlur stdDeviation="2"/>
<feComposite in2="hardAlpha" operator="out"/>
<feColorMatrix type="matrix" values="0 0 0 0 0 0 0 0 0 0 0 0 0 0 0 0 0 0 0.25 0"/>
<feBlend mode="normal" in2="BackgroundImageFix" result="effect1_dropShadow"/>
<feBlend mode="normal" in="SourceGraphic" in2="effect1_dropShadow" result="shape"/>
</filter>
</defs>
</svg>
