<svg height="512" viewBox="0 0 64 64" width="512" xmlns="http://www.w3.org/2000/svg"><g id="Delivery"><path d="m36 11h8a0 0 0 0 1 0 0v2a0 0 0 0 1 0 0h-8a1 1 0 0 1 -1-1 1 1 0 0 1 1-1z" fill="#ff5023"/><path d="m9 21h28v24h-28z" fill="#b38b63"/><path d="m35 21v14a6 6 0 0 1 -6 6h-20v4h28v-24z" fill="#a97c50"/><path d="m43 13v6a6 6 0 0 0 6 6v4h6v-4a3.618 3.618 0 0 0 2-3.236v-8.764z" fill="#ffbcab"/><path d="m55 29h-8a6 6 0 0 0 -6 6v22h20v-22a6 6 0 0 0 -6-6z" fill="#ff5023"/><path d="m55 43v-6a4 4 0 0 0 -8 0v4a2 2 0 0 1 -2 2h-12v8h14a8 8 0 0 0 8-8z" fill="#ffda44"/><path d="m33 42h-6v3 4 3h6v-1-8z" fill="#df461f"/><path d="m58 13v-2a8 8 0 0 0 -16 0v2z" fill="#df461f"/><path d="m23 29 3 2v-10h-6v10z" fill="#ffa733"/><path d="m19 45a4 4 0 0 0 4 4h4v-4z" fill="#ffbcab"/><path d="m41 57h20v4h-20z" fill="#6d6e71"/></g></svg>